<?xml version="1.0" encoding="utf-8"?>
<!-- Generator: Adobe Illustrator 16.0.0, SVG Export Plug-In . SVG Version: 6.00 Build 0)  -->
<!DOCTYPE svg PUBLIC "-//W3C//DTD SVG 1.1//EN" "http://www.w3.org/Graphics/SVG/1.1/DTD/svg11.dtd">
<svg version="1.1" id="Layer_1" xmlns="http://www.w3.org/2000/svg" xmlns:xlink="http://www.w3.org/1999/xlink" x="0px" y="0px"
	 width="1733.764px" height="296.005px" viewBox="0 0 1733.764 296.005" enable-background="new 0 0 1733.764 296.005"
	 xml:space="preserve">
<path fill-rule="evenodd" clip-rule="evenodd" fill="#3D3D3D" d="M538.706,98.053c5.519,2.528,10.229,6.292,15.069,9.857
	c10.767,4.837,20.968,10.607,29.971,18.324c4.797,4.11,9.877,3.935,14.352,0.046c4.366-3.792,9.148-4.817,14.611-4.551
	c3.357,0.163,6.715-0.219,9.984-1.076c8.133-2.135,16.138-4.213,24.583-0.754c4.717,1.933,9.849-1.159,14.813-0.044
	c4.852,4.46,10.726,3.661,16.443,2.947c20.819-2.6,15.279-0.958,23.061,15.291c1.235,2.579,1.439,5.574,1.339,8.503
	c-0.183,5.344,0.085,10.54,3.202,15.266c1.504,2.282,1.294,5.125,0.888,7.754c-0.871,5.614-4.826,7.735-9.958,5.475
	c-0.44-0.193-0.859-0.436-1.275-0.677c-4.059-2.336-6.825-7.607-12.305-6.644c-8.809,1.549-17.286,4.373-24.568,9.81
	c-8.23,6.144-9.974,6.484-18.477,1.354c-2.996-1.809-4.878-1.06-5.223,1.964c-1.501,13.188-13.772,16.998-21.313,24.897
	c-2.838,2.974-7.094,0.815-10.624,2.679c-9.593,5.066-15.284,13.625-21.161,22.043c-1.765,2.528-2.944,5.533-4.97,7.919
	c-1.841,2.169-3.776,4.849-7.201,3.439c-3.366-1.385-4.431-4.581-3.901-7.776c1.624-9.811,6.207-18.44,11.58-26.663
	c0.146-0.223,0.552-0.762,0.979-0.99c-0.303,0.543-1.057,0.851-1.242,1.217c-1.977,3.912-3.879,7.861-7.362,10.718
	c-1.99,1.631-4.429,2.532-6.609,0.962c-2.384-1.717-1.526-4.334-0.486-6.551c5.045-10.759,11.641-21.055,20.058-28.805
	c4.896-4.508,9.444-9.388,14.138-14.105c0.908-0.912,2.631-2.202,0.775-3.479c-1.313-0.901-2.771,0.222-3.728,1.377
	c-1.469,1.769-1.423,3.971-1.726,6.127c-0.937,6.647-4.816,8.646-11.165,6.956c-9.774-2.604-19.692-3.945-29.311,0.87
	c-5.218,2.613-8.662,6.798-10.331,12.371c-3.71,12.396-10.139,21.979-23.668,25.536c-5.746,1.511-10.682,5.451-16.413,7.411
	c-3.754,1.283-7.414,2.494-10.911-0.379c-3.727-3.058-2.514-6.864-1.412-10.628c0.744-2.54,1.659-5.035,2.135-7.647
	c0.745-4.098-0.392-7.374-4.722-8.385c-4.077-0.95-6.25-3.503-7.128-7.244c-1.068-4.55-3.797-5.432-8.061-4.837
	c-4.75,0.66-9.571,0.677-14.353,1.388c-6.933,1.033-9.659-1.215-11.077-8.135c-1.685-8.226-5.756-15.715-7.419-23.953
	c-0.138-0.681-0.775-1.842-1.086-1.725c-1.287,0.485-0.267,1.496-0.177,2.261c0.817,6.923,1.933,13.725,5.168,20.088
	c1.353,2.662,2.654,6.073-0.244,8.694c-2.381,2.154-5.384,1.585-8.238,0.782c-11.461-3.221-20.321,1.518-22.396,13.045
	c-2.128,11.823-10.371,19.809-16.568,29.094c-1.617,2.423-16.31,3.898-18.72,2.395c-3.58-2.233-2.786-7.128,1.678-10.531
	c0.884-0.673,2.165-0.922,2.5-2.22c-0.964-0.08-1.885,0.311-2.846,0.266c-4.916-0.228-7.025-3.221-6.429-7.659
	c0.623-4.639,0.776-9.577,5.354-12.864c2.094-1.504,4.144-5.312,2.07-6.69c-1.812-1.204-6.292-2.567-8.648,1.268
	c-0.501,0.815-0.841,1.943-1.817,2.149c-9.665,2.04-9.491,10.195-10.809,17.365c-2.715,14.756-5.234,13.939-17.754,7.959
	c-4.007-1.914-8.034-4.783-6.95-10.549c0.58-3.084-1.128-4.42-3.912-4.866c-2.372-0.38-4.71-0.872-7.154-0.815
	c-7.807,0.18-11.247-2.758-10.842-10.486c0.241-4.589-0.611-7.428-5.21-8.727c-4.023-1.137-8.021-2.735-10.626,2.355
	c-1.135,2.217-3.118,2.924-5.441,2.725c-4.655-0.399-6.719,2.039-6.825,6.35c-0.085,3.482-1.55,6.459-2.684,9.632
	c-2.098,5.867-4.368,11.696,2.138,16.98c3.078,2.499,2.228,6.731-0.267,9.849c-3.16,3.949-6.447,8.072-10.919,10.406
	c-9.64,5.029-16.821,12.784-23.939,20.581c-5.674,6.216-12.19,10.767-20.193,13.378c-3.489,1.14-6.625,1.503-9.127-1.619
	c-2.976-3.715-6.076-3.05-9.446-0.69c-4.146,2.903-8.063,6.104-11.938,9.338c-3.723,3.106-7.779,4.055-12.059,2.053
	c-4.514-2.11-4.782-6.65-4.043-10.678c1.875-10.211-1.276-20.592,1.359-30.752c0.292-1.121,0.765-3.181-0.795-3.742
	c-0.693-0.251-1.321,1.753-1.993,2.724c-5.701,8.233-10.068,17.488-18.837,23.33c-2.593,1.727-4.884,3.63-7.997,4.591
	c-6.159,1.901-10.911,6.208-11.746,12.474c-0.789,5.916-4.059,8.691-8.572,11.105c-41.985,0-83.971-0.063-125.956,0.097
	c-4.245,0.016-5.713-0.623-5.645-5.393c0.32-22.307,0.142-44.622,0.142-66.935c9.482-6.035,18.636-12.619,28.811-17.506
	c6.544-3.144,13.272-1.97,19.778-0.11c6.792,1.939,13.057,1.295,19.744-0.891c19.259-6.296,35.938-16.792,51.882-29.062
	c13.217-10.173,27.764-16.779,45.471-16.669c10.196,0.063,19.72,0.609,29.566,3.408c12.017,3.417,23.711-0.264,33.539-7.204
	c10.178-7.189,21.278-10.058,33.188-10.539c11.429-0.461,22.881-0.265,34.022-3.37c5.021-1.4,10.215-2.671,11.957-8.649
	c1.977-4.601,2.503-10.272,8.671-11.798c0.387-0.048,0.771-0.113,1.152-0.193c1.931-1.154,4.06-2.076,5.199-4.194
	c2.399-4.455,6.555-5.348,10.238-3.078c3.626,2.233,6.311,6.092,4.498,11.082c-0.654,1.8-1.837,3.378-2.396,5.242
	c-2.023,6.763-0.147,10.417,6.532,12.515c3.968,1.245,7.67,2.589,6.317,8.05c-0.157,0.633-0.801,1.181-0.485,1.931
	c-0.255-0.454,0.215-0.729,0.273-1.1c0.878-5.656,1.109-11.58,7.773-14.164c3.286-1.274,4.698-4.229,4.552-7.563
	c-0.311-7.114,2.269-12.696,8.003-16.874c1.646-1.2,2.68-2.786,2.534-4.902c-0.122-1.771-0.755-3.72-2.556-3.929
	c-2.712-0.313-1.872,2.19-2.025,3.643c-1.253,11.822-2.334,12.729-13.894,11.378c-9.939-1.163-10.671-2.997-4.636-11.86
	c0.269-0.396,0.36-0.9,0.54-1.104c1.418-1.628,1.135-3.69,1.629-5.543c-0.309,1.625-0.266,3.395-1.093,4.814
	c-0.574,0.986-0.775,2.273-1.941,2.928c-1.468,0.825-2.562,0.306-3.954-0.396c-0.584-0.293,0.146,0.938,0.341,1.129
	c1.078,1.051,1.746,2.282,1.487,3.746c-0.29,1.635-0.514,3.381-1.022,4.861c-1.146,3.338-3.084,4.57-5.865,0.962
	c-2.534-3.288-5.15-6.532-10.222-5.986c-1.708,0.184-1.929-1.752-1.271-3.302c3.204-8.621,4.276-18.223,12.73-24.285
	c3.409-2.443,6.441-5.09,10.847-4.773c6.38,0.458,11.669-2.138,16.717-5.571c7.247-4.93,15.132-6.824,23.915-5.707
	c13.781,1.753,27.606,3.147,41.409,4.727c1.177,0.134,2.431,0.302,3.468,0.816c6.466,3.22,10.645,3.994,15.085-4.493
	c3.795-7.257,12.012-12.283,21.219-13.396c4.285-0.518,8.572-1.063,12.872-1.409c3.574-0.286,7.227,0.85,8.892,3.799
	c4.874,8.636,12.546,14.384,20.014,20.252C521.85,85.722,528.156,94.75,538.706,98.053z"/>
<path fill-rule="evenodd" clip-rule="evenodd" fill="#353535" d="M131.604,295.852c2.262-3.992,4.085-8.029,4.577-12.773
	c0.623-6.005,8.724-14.121,14.529-14.996c6.853-1.031,11.477-6.125,14.716-10.808c4.939-7.143,11.687-13.65,12.95-23
	c0.27-1.994,0.951-3.949,3.391-3.977c2.654-0.029,3.967,1.938,4.126,4.195c0.236,3.334,0.62,6.904-0.275,10.025
	c-2.954,10.298,1.514,20.866-1.569,31.135c-0.832,2.769-0.492,5.967,2.629,7.573c2.704,1.391,5.11,0.127,7.331-1.533
	c5.973-4.463,11.83-9.096,17.991-13.282c3.631-2.468,7.809-4.361,8.631,2.807c0.402,3.498,2.54,3.604,5.213,2.734
	c6.27-2.04,11.951-4.967,16.422-10.033c8.109-9.187,16.317-18.232,27.545-23.932c2.679-1.36,4.713-4.063,6.913-6.279
	c3.524-3.551,4.456-6.979-0.986-9.643c-4.187-2.05-3.825-4.787-2.671-8.925c2.235-8.015,6.509-15.497,6.172-24.283
	c-0.173-4.497,2.223-7.578,7.451-5.375c3.515,1.481,4.642-0.476,5.86-3.192c1.609-3.589,4.463-5.011,8.266-3.341
	c5.271,2.315,10.492,4.747,15.71,7.183c3.537,1.65,4.221,3.945,0.976,6.508c-2.155,1.701-3.411,3.466-1.903,6.111
	c1.616,2.833,3.8,0.287,5.576,0.553c5.122,0.768,10.305,1.249,15.352,2.133c4.015,0.704,2.533,4.924,1.653,7.929
	c-1.659,5.664,1.055,8.561,8.865,10.532c6.093,1.538,6.148-3.104,6.063-6.226c-0.187-6.81,4.069-12.767,3.054-19.673
	c-0.4-2.723,1.511-4.157,4.172-2.978c5.994,2.653,6.726-0.304,6.022-5.24c-0.262-1.839-0.879-4.178,1.646-4.862
	c1.917-0.518,3.033,1.271,3.857,2.71c1.782,3.116,3.161,4.299,5.047-0.028c2.149-4.929,4.334-2.602,5.637,0.54
	c2.695,6.501,1.726,12.729-2.59,18.256c-1.15,1.474-3.19,2.334-3.37,4.465c-0.223,2.643-3.405,5.693,0.037,7.835
	c2.756,1.714,4.815-0.955,6.759-2.732c1.163-1.063,2.165-3.246,4.042-1.786c0.891,0.694,1.045,2.567,1.194,3.943
	c0.569,5.265-2.639,7.813-6.987,9.637c-1.451,0.608-3.467,1.472-2.668,3.607c0.615,1.641,2.444,0.901,3.823,1.048
	c9.977,1.059,12.923-7.974,18.21-13.21c3.045-3.017,4.812-7.875,5.881-12.219c2.066-8.394,4.521-15.349,13.296-20.002
	c4.453-2.361,6.212-6.95,11.058-1.02c1.364,1.67,4.904,3.274,7.234,1.256c2.518-2.185,0.544-5.175-0.744-7.231
	c-4.815-7.696-3.318-16.857-6.172-24.993c-0.792-2.26-0.421-5.265,2.322-6.139c3.183-1.014,4.821,1.677,5.892,4.102
	c1.355,3.071,3.025,6.287,3.237,9.528c0.557,8.532,8.248,14.558,7.605,23.563c-0.216,3.031,3.276,3.891,6.123,3.402
	c6.394-1.097,12.981-0.521,19.281-2.575c4.918-1.604,8.21-0.377,7.475,5.715c-0.526,4.366,1.26,6.938,5.688,7.547
	c6.749,0.929,8.13,5.123,6.576,10.98c-0.925,3.487-2.17,6.895-3.018,10.398c-1.396,5.77,0.877,8.282,6.292,6.258
	c8.97-3.354,18.05-6.731,26.384-11.362c6.407-3.559,9.962-10.339,11.938-17.445c2.448-8.803,7.407-14.326,15.978-18.609
	c10.5-5.249,19.696-0.833,29.23,0.742c5.037,0.834,5.824-0.074,5.944-4.566c0.299-11.197,8.214-15.165,17.713-9.097
	c3.596,2.299,3.191,4.426-0.294,6.394c-17.776,10.032-28.792,26.163-38.874,43.128c-0.581,0.979-1.405,2.322,0.102,3.062
	c0.566,0.278,1.924-0.312,2.485-0.912c1.63-1.748,3.045-3.696,4.536-5.573c1.788-2.25,3.343-4.747,5.418-6.689
	c1.782-1.667,4.464-4.493,6.612-1.475c1.697,2.385-1.867,3.303-3.474,4.442c-4.813,3.41-7.082,8.56-8.84,13.747
	c-1.438,4.24-1.347,8.942-3.786,12.998c-0.851,1.415-0.845,3.63,0.844,4.556c2.375,1.301,3.667-0.929,4.405-2.52
	c3.5-7.555,8.403-14.003,14.715-19.367c2.923-2.484,5.739-5.849,9.172-6.833c10.083-2.896,16.707-10.883,25.315-15.862
	c4.364-2.525,5.259-7.271,6.457-11.667c0.566-2.078,0.633-4.29,1.169-6.38c0.562-2.188,1.824-3.982,4.182-4.548
	c2.646-0.634,3.805,1.296,5.144,3.068c5.337,7.061,7.543,7.407,14.536,1.763c7.579-6.116,17.541-7.501,25.378-13.096
	c1.492-1.065,3.215,0.305,4.703,1.072c3.662,1.889,6.946,4.286,9.948,7.119c1.611,1.519,3.621,2.88,5.777,1.194
	c1.93-1.51,2.394-4.389,1.115-5.917c-5.421-6.477-3.667-14.06-3.927-21.327c-0.23-6.406-4.867-10.86-7.05-16.401
	c-0.911-2.313-3.671-2.021-5.812-1.805c-4.069,0.412-8.15,0.851-12.163,1.611c-5.351,1.015-9.486-0.459-12.38-5.143
	c-2.506-4.398,1.139-6.152,3.755-7.908c3.916-2.626,8.846-4.201,13.141-3.188c11.744,2.771,22.289-1.298,33.118-4.225
	c3.788-1.023,7.75-1.14,11.528-2.161c3.012-0.815,5.959-1.887,7.555-4.937c1.733-2.789,4.785-2.655,7.461-3.357
	c0.516-0.54,1.033-1.079,1.55-1.62c3.678-8.979,7.628-10.514,15.988-5.402c6.568,4.016,12.562,3.897,18.618-0.684
	c2.67-2.02,5.596-3.765,7.944-6.137c5.192-5.243,10.176-9.254,18.743-7.368c6.206,1.365,11.932-4.535,18.584-4.337
	c13.387-6.581,26.78-13.13,38.139-23.089c3.561-3.124,7.124-4.768,8.223,2.185c0.068,0.429,0.403,0.971,0.771,1.174
	c3.635,2.002,1.191,10.482,7.14,8.583c5.884-1.879,15.411-1.815,13.791-12.746c-0.106-0.715,1.492-1.683,2.298-2.533
	c8.741,4.776,17.634,9.745,24.238,17.066c3.463,3.842,7.008,5.042,11.265,6.154c2.162,2.567,2.08,4.992,0.093,7.773
	c-2.252,3.151-4.583,6.14-7.712,8.47c-0.722,0.536-1.643,1.33-1.223,2.336c0.295,0.703,1.285,0.199,1.967,0.249
	c8.322,0.594,9.482,3.082,5.483,10.887c-0.984,1.923-3.252,3.111-3.161,5.605c2.265-1.122,3.524-3.195,4.884-5.17
	c2.757-4.004,5.567-7.183,11.196-4.102c2.947,1.614,4.636-1.196,6.336-3.298c3.771-4.667,7.896-7.999,13.89-3.011
	c2.469,2.055,4.024-0.083,5.264-1.786c3.14-4.315,7.142-7.762,10.952-11.417c1.762-1.691,3.411-3.434,6.161-3.052
	c6.698-0.386,10.311,3.842,6.282,7.915c-6.598,6.67-5.257,15.66-8.942,23.094c-2.742,5.531-4.381,11.509-9.151,15.859
	c-3.357,3.062-3.828,7.12-3.045,11.251c0.969,5.122-2.554,8.341-4.634,12.19c-0.174,0.32-0.401,0.468-0.382,0.607
	c0.184-0.31,0.383-0.611,0.61-0.891c3.488-4.283,5.021-9.261,5.242-14.709c8.298-3.598,8.379-3.567,11.302,4.475
	c0.573,1.577,0.949,3.239,1.77,4.711c0.4,0.717,0.387,1.907,1.52,1.892c0.171-0.003,0.117-1.327,0.074-2.041
	c-0.16-2.652-0.667-5.241-1.554-7.741c-1.812-5.111-1.285-9.852,2.124-14.171c5.964-0.093,13.446,5.328,15.225,11.426
	c0.779,2.675,1.125,4.426,3.618,1.189c0.877-1.138,2.124-2.281,3.59-2.177c11.887,0.841,17.052-8.253,23.179-15.734
	c4.885-5.963,7.759-13.288,12.476-19.399c2.925-3.789,5.503-7.907,10.96-8.646c3.446-0.468,2.53-2.971,1.549-4.946
	c-3.812-7.673-5.524-16.463-12.581-22.425c-2.602-2.199-4.006-5.753-3.456-9.174c1.218-7.575-1.673-14.072-4.878-20.415
	c-1.272-2.518-2.251-3.984,1.182-4.94c6.678,4.196,9.603,10.809,11.778,17.989c1.704,5.622,2.835,11.721,9.346,14.227
	c2.61,1.453,5.428,1.572,8.346,1.536c4.001-0.05,9.243-0.729,11.335,2.552c6.021,9.437,17.154,11.972,24.367,19.538
	c2.157,2.263,6.001,3.666,4.789,8.007c-1.592,2.64-4.251,4.355-6.851,5.241c-10.2,3.476-16.395,11.863-24.234,18.314
	c-4.405,3.625-3.768,8.695-6.538,12.487c-19.892,9.876-40.724,17.853-59.743,29.537c-5.84,3.588-10.941,7.674-13.808,14.071
	c-0.788,0.656-1.688,1.128-2.597,1.586c-3.902,1.159-7.766,2.495-11.824,0.406c-1.591-0.82-3.421-0.798-4.581,0.752
	c-1.804,2.406-4.002,2.969-6.897,2.606c-3.12-0.392-4.539,2.104-6.002,4.341c-4.74,7.249-8.527,14.948-11.111,23.229
	c-5.644,2.019-6.693-1.569-6.803-5.824c-0.061-2.367,0.861-4.732,0.622-7.141c-0.504-5.051-4.474-7.146-7.809-3.527
	c-3.946,4.282-9.207,5.839-13.683,8.877c-7.422,5.037-11.412,13.206-14.181,21.104c-4.477,12.774-12.465,23.067-20.037,33.786
	c-0.692,0.98-1.476,2.219-2.56,2.456c-8.011,1.752-15.402,4.822-22.151,9.524c-1.363,0.949-2.685-0.415-3.866-1.206
	c-3.318-5.662,0.291-11.656-0.828-17.428c-0.213-1.101,0.778-2.796-0.435-3.176c-0.816-0.254-1.676,1.481-2.405,2.423
	c-4.729,6.099-7.471,13.406-11.974,19.66c-2.386,3.313-4.398,6.898-7.512,9.627c-1.952,1.71-3.797,4.103-6.846,2.688
	c-2.925-1.355-4.065-4.047-4.011-7.124c0.126-7.175-1.031-14.409,0.921-21.511c0.222-0.808,1.074-1.861-0.13-2.445
	c-0.546-0.265-1.253,0.527-1.897,0.817c-9.388,4.229-12.545,13.543-17.227,21.495c-2.922,4.965-5.427,10.164-9.122,14.637
	c-3.725,4.51-8.794,6.079-11.698,3.36c-4.054-3.796-2.76-7.672,0.354-11.407c1.235-1.48,2.548-3.096,2.857-4.96
	c1.126-6.799,5.711-10.854,10.926-14.493c3.967-2.57,3.158-7.53,5.488-10.913c2.75-10.811,7.738-20.813,11.545-31.248
	c2.356-6.462,7.144-7.047,11.193-1.731c0.583,0.766-0.563,0.101,0.219,0.663c-0.519-0.272-0.141-0.777-0.304-1.155
	c-3.438-7.995-1.173-15.366,3.607-21.691c8.561-11.329,12.5-24.022,12.536-37.949c0.015-5.986,1.001-11.692,2.332-17.433
	c3.031-8.046,6.529-15.889,9.409-24.027c2.873-8.115,4.642-16.33,6.46-24.623c0.041-0.187,0.509-0.001,0.54-0.359
	c-0.264,0.14-0.317,0.489-0.521,0.847c-3.646,6.368-7.738,12.648-7.793,20.293c-0.049,6.672-1.932,11.481-8.894,13.869
	c-6.213,2.131-6.892,8.177-7.647,13.688c-0.564,4.111-1.182,7.79-3.902,11.467c-2.155,2.912-2.957,7.06-3.226,11.409
	c-0.467,7.56-2.295,15.029-2.711,22.771c-0.272,5.069-3.502,10.345-8.583,13.311c-4.303,2.51-8.727,1.32-9.3-3.294
	c-0.69-5.547-3.258-10.391-4.212-15.737c-0.045-0.254,0.505-0.758,0.275-1.266c0.064,0.322-0.097,0.611-0.137,0.917
	c-1.006,7.789-8.254,13.057-8.293,21.492c-0.015,3.271-3.125,7.058-7.429,5.769c-4.624-1.385-7.547-5.521-7.071-10.231
	c1.22-12.084,3.088-24.124,10.178-34.548c0.818-1.202,1.388-2.539,1.459-4.024c0.06-1.25-0.14-2.469-1.343-3.116
	c-1.25-0.675-2.381-0.152-3.164,0.858c-4.589,5.929-11.237,11.107-5.874,20.177c1.815,3.071,0.25,6.923,0.038,10.424
	c-0.363,5.978-1.191,11.863-0.868,17.968c0.345,6.518-2.86,12.768-4.537,19.118c-0.578,2.188-2.812,3.843-5.272,4.568
	c-3.334,0.983-5.996,2.944-8.311,5.503c-1.661,1.834-3.68,3.395-6.32,2.566c-2.904-0.91-4.84,0.311-7.169,1.854
	c-4.134,2.741-7.478,1.802-9.973-2.897c-4.171-7.856-6.021-8.638-14.513-7.584c-10.832,1.346-18.905-3.141-23.805-13.251
	c-0.638-1.318-1.463-2.474-2.496-3.505c-1.184-1.181-2.965-1.664-3.779-3.268c0.505,1.192,1.148,2.487,0.702,3.717
	c-1.776,4.892-5.497,8.258-10.341,9.18c-8.06,1.534-14.348,4.052-17.198,12.947c-1.496,4.671-6.738,6.308-11.956,6.518
	c-13.789,0.557-14.636,1.524-15,15.398c-6.049,6.012,1.435,16.385-7.087,21.786c-1.721,1.091-2.5,3.295-5.244,2.297
	c-2.455-0.893-3.955-2.69-4.158-4.905c-0.264-2.878,1.277-6.877-3.154-6.993c-4.174-0.108-8.757,0.809-10.291,5.986
	c-1.002,3.383-3.413,5.677-5.782,8.092c-2.368,2.414-5.156,2.338-7.77,1.274c-2.639-1.074-3.938-3.899-3.49-6.468
	c1.079-6.191,0.508-13.01,5.713-17.919c6.731-6.349,7.79-13.293,2.243-20.984c-0.111-0.154,0.185-0.752-0.08-1.106
	c-0.329-0.443-0.01-0.581,0.045-0.104c0.053,0.45,0.474,0.822,0.47,1.016c-0.158,7.25-1.363,14.371-3.409,21.297
	c-1.313,4.445-4.512,6.229-8.97,4.128c-1.355-0.638-3.27-1.532-3.885-0.748c-4.154,5.291-10.258,4.231-15.718,5.352
	c-2.834,0.581-4.091,3.155-5.655,5.284c-2.638,3.594-6.006,5.474-10.607,4.314c-6.884-1.737-8.532-7.241-3.308-12.152
	c3.776-3.55,6.026-7.361,5.371-12.679c-0.2-1.623-0.027-3.33,0.933-4.843c0.776-1.224,2.292-1.427,3.162-2.481
	c-1.028,1.346-2.643,1.885-4.087,2.099c-3.567,0.529-6.205,1.842-7.934,5.296c-7.174,14.331-21.811,15.513-34.617,10.834
	c-3.029-1.106-5.131-1.658-7.918-0.18c-4.521,2.396-8.421,1.514-11.214-2.887c-2.98-4.691-7.711-7.185-12.255-9.843
	c-4.784-2.799-7.881-6.255-6.686-12.239c0.27-1.348,0.749-3.16-1.203-3.551c-1.675-0.336-2.789,1.188-3.011,2.559
	c-2.532,15.686-18.28,17.691-27.489,26.43c-2.188,2.078-5.829,2.178-9.376,1.536c-6.733-1.219-10.454,1.35-13.64,7.622
	c-2.338,4.601-6.531,5.292-11.121,4.214c-5.619-1.319-11.148-2.612-17.066-2.269c-4.476,0.262-7.949,1.401-10.303,5.329
	c-1.375,2.295-3.172,4.267-5.378,5.773c-3.103,2.118-6.123,1.479-6.466-2.237c-0.441-4.772-1.705-5.566-6.256-4.093
	c-5.319,1.725-10.638-2.504-11.467-9.765c-0.651-5.712-3.014-5.72-5.675-2.385c-5.731,7.182-15.878,8.075-21.171,15.771
	c-1.594,2.319-4.767,1.717-7.445,1.54c-11.899-0.783-16.889,2.547-21.173,13.957c-2.206,5.873-7.072,9.799-10.752,14.593
	C235.616,295.852,183.61,295.852,131.604,295.852z"/>
<path fill-rule="evenodd" clip-rule="evenodd" fill="#242424" d="M1733.675,274.183c0,6.259-0.161,12.525,0.079,18.776
	c0.097,2.52-0.452,3.388-2.976,2.929c-1.165-0.213-2.401-0.036-3.604-0.036c-180.335,0-360.671,0-541.006,0
	c-8.728-5.426-15.094-13.503-22.257-20.579c-7.911-7.813-15.842-14.981-26.687-18.359c-3.463-1.078-6.742-3.122-8.607-6.268
	c-4.636-7.827-10.834-14.196-17.542-20.173c-0.497-0.442-0.826-1.092-1.255-1.629c0.446,0.566,0.92,1.126,1.259,1.758
	c3.566,6.639,1.472,14.057,2.737,21.051c0.632,3.493-10.206,11.273-13.904,10.887c-1.037-0.107-2.037-0.527-2.459-1.314
	c-3.474-6.484-8.911-12.416-6.176-20.747c0.301-0.915,0.569-1.825,0.446-2.796c-0.091-0.714-0.243-1.778-0.832-1.856
	c-1.593-0.209-1.103,1.278-0.996,1.936c0.488,3.024,0.076,6.124,0.622,9.095c0.835,4.546-1.798,6.929-5.242,8.293
	c-3.516,1.391-5.865-1.008-7.643-3.843c-1.418-2.262-2.136-4.833-3.164-7.267c-1.444-3.42-3.597-6.246-6.834-8.139
	c-1.072-0.627-2.297-0.96-3.292,0.074c-0.745,0.774-0.513,1.789-0.082,2.682c0.621,1.291,1.708,2.362,2.035,3.779
	c0.633,2.752,0.203,5.253-2.044,7.225c-2.33,2.046-4.771,1.893-7.304,0.434c-3.808-2.195-7.117-4.835-9.129-8.933
	c-1.905-3.884-3.2-8.043-5.524-11.74c-1.424-2.265-0.366-4.698-0.166-7.109c0.188-2.264,4.039-2.885,2.942-4.032
	c-3.005-3.142-6.289-7.149-11.682-3.952c-0.609,0.361-1.357,0.474-2.083,0.528c-0.724,0.056-1.441,0.024-2.143-0.186
	c0.528,0.15,1.067,0.198,1.615,0.216c3.062,0.096,5.749-2.981,8.995-1.133c4.234,2.412,4.324,10.297-0.513,12.581
	c-6.854,3.237-11.051,7.482-12.496,15.257c-0.706,3.801-4.587,6.865-9.148,7.089c-4.723,0.231-7.24,2.537-9.059,6.821
	c-2.973,7.009-5.509,7.66-11.163,2.864c-4.433-3.762-7.796-2.729-11.058,1.185c-2.936,3.524-5.766,7.147-10.347,8.675
	c-6.27,2.092-9.803-0.295-9.798-6.905c0.003-3.208,0.896-6.126-4.24-3.674c-4.406,2.102-6.63-1.803-8.424-4.766
	c-2.623-4.335-5.592-6.687-11.101-5.933c-5.652,0.775-8.513-3.627-10.972-7.867c-1.788-3.086-2.275-4.762-6.391-1.114
	c-7.382,6.544-14.215,13.536-20.993,20.636c-2.737,2.868-5.709,5.375-9.737,6.222c-2.271,0.78-4.379,1.927-6.565,2.896
	c-3.514,1.556-6.097,0.261-7.486-2.938c-1.347-3.097-1.188-6.445,2.437-7.916c4.527-1.836,8.163-4.971,12.183-7.526
	c3.52-2.237,5.789-5.864,3.857-9.812c-3.248-6.638,0.51-9.569,5.179-12.727c2.539-1.717,6.091-1.823,7.74-4.906
	c1.474-2.701,4.215-3.169,6.77-3.287c4.538-0.209,8.123-1.596,11.688-4.735c4.203-3.704,9.085-1.816,12.915,1.479
	c2.187,1.879,3.806,4.689,7.159,3.253c3.016-1.292,2.584-4.211,2.401-6.856c-0.108-1.582,0.511-2.769,1.992-3.459
	c4.188-3.506,9.428-3.205,14.361-4.008c5.873-4.009,11.994-4.401,18.355-1.27c1.841,0.639,3.604,1.085,5.463-0.185
	c2.578-1.761,5.015-1.74,6.585,1.371c1.316,2.608,1.246,5.397-1.146,7.185c-4.672,3.492-10.01,5.394-15.961,5.061
	c-0.49-0.028-0.958-0.206-1.329,0.146c-0.268,0.251-0.486,0.095-0.341-0.015c0.632-0.475,1.395-0.241,1.99,0.059
	c8.913,4.471,14.344-2.949,18.952-7.358c5.944-5.688,10.738-11.951,19.541-13.233c2.492-0.364,3.861-3.116,5.881-4.623
	c2.869-3.966,6.503-4.763,11.043-3.088c5.258,1.939,10.871,0.886,16.288,1.497c3.426,2.563,7.269,1.986,11.092,1.379
	c1.894-0.299,3.738-1.279,5.658-0.993c8.43,1.258,14.078-1.219,15.638-10.455c0.541-3.2,2.707-5.551,6.51-5.684
	c3.611-0.125,5.926,1.336,7.135,4.772c1.648,4.683,4.848,7.381,9.872,8.436c4.258,0.893,6.695,4.481,8.839,8.02
	c3.02,4.987,6.561,9.313,11.526,12.676c5.268,3.566,6.983,10.134,11.024,14.937c5.831,6.933,11.399,14.248,14.166,23.26
	c2.455,7.999,9.854,10.729,16.499,14.073c1.97,0.992,3.71-0.074,3.847-1.9c0.751-10.005,10.149-16.043,11.433-26.019
	c0.687-5.332,2.082-10.212-0.553-15.353c-1.711-3.335-2.541-7.277,0.886-9.877c3.408-2.586,6.15,0.316,8.882,2.346
	c4.511,3.353,8.641,6.745,9.654,12.855c0.551,3.322,3.298,5.142,6.57,5.998c9.267,2.425,15.098,8.33,17.677,17.524
	c1.289,4.591,12.294,13.84,16.966,14.442c2.319,0.299,2.505-1.273,2.24-2.661c-0.866-4.559,1.352-7.456,5.104-9.12
	c4.033-1.789,7.457,0.295,10.587,2.742c0.946,0.739,1.735,1.67,2.666,2.431c1.298,1.061,2.724,2.482,4.428,1.171
	c1.599-1.23,1.015-3.148,0.367-4.686c-1.604-3.805-2.595-7.76-3.133-11.82c-0.772-5.839,1.182-8.446,7.063-9.491
	c1.891-0.338,3.813-0.478,5.689-0.947c9.099-2.278,12.484-0.492,15.354,8.68c1.606,5.138,3.531,9.987,7.501,13.76
	c0.78,0.742,1.439,2.348,2.776,1.55c0.674-0.404,0.205-1.82-0.042-2.715c-1.115-4.039-1.192-7.809,3.507-9.503
	c4.398-1.584,7.653,0.837,9.716,4.299c3.798,6.372,8.428,7.003,15.278,4.759c6.509-2.132,13.749-0.574,20.677-1.691
	c9.46-1.525,18.752-4.448,28.502-4.012c1.933,0.087,3.84-0.408,5.54-1.401c11.413-6.672,24.061-7.284,36.083-4.196
	c10.839,2.783,21.192,3.674,32.013,1.707c2.834-0.515,5.283,0.377,7.8,1.899c4.914,2.971,9.744,3.196,14.993-0.244
	c6.234-4.086,13.469-4.384,20.656-2.811c8.06,1.764,15.845,4.521,24.406,3.938c5.181-0.353,10.032,2.243,14.697,4.715
	c3.431,1.818,2.16,5.378,3.596,7.877c2.119-1.814,2.414-5.349,5.651-6.066c0.608-0.136,1.525-0.269,1.903-0.139
	c12.238,4.209,25.724-1.714,37.727,4.604c0.679,0.358,2.37,0.917,3.183-0.049c3.488-4.142,8.35-2.104,12.581-2.929
	c11.36-2.481,22.393,0.235,33.402,2.256c5.192,0.952,9.938,2.247,15.483,0.66c4.157-1.189,8.99,0.539,13.205,2.476
	c10.872,9.169,22.945,13.779,37.634,12.8c7.374-0.492,14.921,2.859,22.624,2.916C1731.21,271.039,1732.268,272.934,1733.675,274.183
	z"/>
<path fill-rule="evenodd" clip-rule="evenodd" fill="#2C2C2C" d="M800.461,246.734c-7.839,4.943-8.702,14.558-14.121,21.132
	c-0.944,1.145-1.371,2.706-0.236,3.959c1.451,1.598,3.154,0.846,4.548-0.158c2.578-1.856,4.361-4.447,5.928-7.162
	c3.835-6.649,7.63-13.32,11.435-19.985c2.754-4.823,5.513-9.538,11.227-11.62c2.657-0.969,3.501-3.788,4.607-6.196
	c0.596-1.296,1.269-2.834,3.051-2.481c1.575,0.311,2.111,1.851,2.628,3.194c1.017,2.637,0.591,5.286-0.53,7.712
	c-3.163,6.843-2.575,14.081-2.449,21.265c0.035,2.057-0.403,4.814,2.269,5.477c2.464,0.611,3.923-1.698,5.024-3.438
	c6.661-10.533,13.219-21.131,19.683-31.785c1.614-2.66,2.607-6.449,6.675-4.687c4.015,1.741,2.311,5.267,1.213,8.131
	c-1.594,4.158-1.977,8.406-1.431,12.75c0.376,2.986,0.002,5.739-1.722,8.249c2.36,2.806,0.87,4.862-1.386,6.664
	c-10.32,8.239-19.297,17.94-29.07,26.78c-5.221,4.722-10.345,9.277-17.234,11.317c-99.196,0-198.393,0-297.589,0
	c-2.101-1.757-3.282-3.747-0.698-5.918c4.58-3.849,9.089-7.76,12.86-12.429c0.537-0.665,1.206-0.593,1.824-0.82
	c1.48-0.543,3.03-0.677,4.597-0.648c-1.842-0.653-3.393,0.733-5.179,0.728c-1.758-0.007-3.64,0.57-4.75,1.863
	c-6.126,7.142-15.247,10.476-21.655,17.225c-60.674,0-121.347,0-182.021,0c-3.311-2.669-4.656-6.431-5.478-10.366
	c-1.12-5.362,1.093-7.757,5.988-5.857c4.958,1.924,6.519,0.038,7.42-4.376c1.278-6.259,11.607-13.604,17.7-12.514
	c3.555,0.636,5.221,3.484,5.229,6.877c0.015,6.64,3.242,8.642,9.598,8.345c7.942-0.372,15.034-0.39,21.73-6.886
	c4.685-4.545,13.126-5.051,19.914-2.157c9.474,4.039,18.441,5.178,27.32-1.146c1.625-1.157,3.654-1.748,5.506-1.253
	c8.835,2.367,15.24-2.608,21.878-6.949c1.611-1.053,2.918-3.186,4.626-3.337c7.34-0.643,12.04-3.77,15.36-10.799
	c1.932-4.09,8.262-2.139,10.963,2.782c6.585,11.997,17.043,13.78,27.09,4.617c7.628-6.957,18.578-6.938,25.812,0.453
	c5.449,5.567,11.195,10.016,19.078,11.961c7.009,1.73,10.655,0.979,12.637-6.083c1.6-5.699,2.514-10.997,10.402-9.714
	c1.279,0.209,2.441-1.544,3.294-2.649c2.338-3.032,4.868-2.237,7.811-1.068c2.863,1.139,4.069,3.042,4.103,5.948
	c0.021,1.847-0.171,3.659-0.567,5.474c-0.827,3.793,0.446,6.972,4.094,8.18c4.433,1.467,5.452,4.15,4.34,8.228
	c-0.958,3.513-0.914,6.458,2.989,8.438c3.939,1.996,7.935,3.418,11.429,0c5.257-5.143,11.88-9.325,13.831-17.121
	c0.485-1.939,1.597-3.944,2.759-4.801c4.368-3.215,5.969-6.736,3.465-11.815c-0.679-1.375,0.044-2.889,0.648-4.164
	c1.566-3.307,3.522-6.225,2.261-10.454c-0.535-1.791,0.418-5.329,3.956-5.784c3.191-0.409,5.765,0.195,6.748,3.73
	c0.384,1.384,0.513,2.855,1.308,4.104c1.085,1.704,2.449,3.159,4.662,2.662c2.143-0.48,2.066-2.384,2.028-4.084
	c-0.057-2.516,0.639-4.684,2.403-6.569c4.028-4.306,8.8-3.925,11.808,1.105c1.36,2.274,2.433,4.686,2.821,7.37
	c0.118,0.811-0.164,2.18,1.171,2.165c0.51-0.006,0.583-1.217,0.936-1.834c2.759-4.816,3.687-9.817,1.937-15.246
	c-1.602-4.963,0.188-7.92,5.506-8.561c1.433-0.172,2.792-0.715,4.175-1.125c6.946-2.06,9.372-0.846,10.771,6.117
	c1.697,8.443,5.544,15.853,10.15,22.949c1.718,2.646,3.695,5.479,7.416,4.609c3.838-0.898,3.826-4.432,4.31-7.527
	c0.489-3.128-0.038-6.249,0.091-9.359c0.356-8.647,5.18-10.886,12.703-7.241c5.114,2.479,8.515,5.254,10.135,10.875
	c1.026,3.562,4.761,4.676,8.402,3.937c3.477-0.704,7.42-1.166,7.647-6.098c0.219-4.761,2.707-7.529,7.373-8.396
	c4.25-0.79,5.894-3.956,6.525-7.694c0.796-4.709,1.715-9.396,2.758-14.046c0.531-2.364-0.01-6.017,3.696-6.185
	c2.988-0.135,6.267,1.528,6.984,4.279c1.629,6.252,4.804,11.132,9.292,15.696c2.277,2.314,2.087,6.202,1.208,9.672
	c-1.467,5.797-2.13,11.56,1.172,17.126C802.553,242.436,801.958,244.74,800.461,246.734z"/>
<path fill-rule="evenodd" clip-rule="evenodd" fill="#3C3C3C" d="M1733.675,274.183c-15.898,0.131-31.622-1.745-47.3-4.115
	c-7.243-1.094-12.039-6.473-17.718-10.302c-17.408-5.128-35.507-9.855-53.209-9.379c-21.604,0.583-37.172-11.04-54.665-19.252
	c-5.281-2.48-10.326-4.988-16.251-5.469c-5.135-0.414-9.712-2.501-13.904-5.544c-10.356-7.514-20.701-14.396-34.382-15.313
	c-6.9-0.462-13.386-5.096-20.26-7.318c-8.45-2.731-10.894-1.315-11.703,7.629c-0.443,4.886-2.605,8.287-6.918,10.087
	c-5.217,2.177-8.414,6.115-11.191,10.785c-3.585,6.024-7.74,6.397-12.355,1.202c-4.105-4.622-10.207-3.906-15.229-5.216
	c-14.733-3.84-28.718-9.148-41.825-16.772c-5.302-3.082-10.704-5.062-16.905-5.633c-6.949-0.639-13.674-2.703-19.728-6.454
	c-6.924-4.29-14.402-6.688-22.607-6.317c-6.217,0.28-12.241-1.142-17.331-4.23c-9.912-6.016-20.39-10.835-30.924-15.448
	c-9.194-4.026-19.489-4.887-28.896-8.622c-3.82-1.517-7.284-3.221-10.706-5.626c-7.009-4.927-15.193-2.967-22.797-1.614
	c-6.182,1.102-12.077,2.002-18.488,1.513c-8.392-0.641-15.439-4.088-22.163-8.22c-8.357-5.135-15.051-12.493-22.508-18.838
	c-0.922-0.784-1.348-1.975-1.27-3.249c1.454-3.879,4.133-3.368,6.959-1.823c3.793,2.072,7.523,4.255,10.762,7.178
	c1.068,0.965,2.299,1.75,3.572,2.425c3.399,1.8,7.362,4.436,10.577,1.193c3.138-3.163-0.625-6.603-1.8-9.801
	c-0.575-1.565-1.885-2.765-2.858-4.133c-4.01-5.634-3.691-7.434,2.105-12.438c4.524-1.033,8.239,0.312,11.929,3.092
	c6.133,4.62,12.921,8.179,20.336,10.4c5.348-0.342,8.487,4.06,12.646,6.166c8.943,4.53,18.126,8.672,25.531,15.977
	c5.987,5.907,13.025,5.979,20.52,1.133c6.893-4.456,14.454-7.6,21.512-11.706c2.734-1.591,5.709-2.612,8.852-2.901
	c9.822-0.902,19.466-2.53,28.782-5.945c3.813-1.396,7.506-0.866,10.852,1.828c5.486,4.419,11.911,6.136,18.878,5.877
	c4.863-0.181,9.609,0.824,14.293,1.735c6.157,1.198,9.789,5.556,11.619,11.448c0.009,0.717-0.045,1.435-0.154,2.144
	c-1.917,3.945-5.977,5.173-9.301,7.346c-0.76,0.495-2.023,1.276-1.404,2.116c0.716,0.968,1.668-0.184,2.328-0.761
	c8.046-7.019,8.86-7.018,17.223-0.467c4.883,3.824,10.633,3.666,15.696,1.434c10.246-4.52,18.829-3.705,26.368,5.101
	c2.669,3.118,6.388,5.601,10.419,6.151c12.227,1.67,19.686,12.008,30.265,16.155c11.391,4.467,20.555,14.017,34.319,13.538
	c6.769-0.235,13.491,3.497,19.834,7.057c10.292,5.774,19.337,15.307,33.044,12.423c3.189-0.67,6.005,1.057,8.396,3.347
	c6.819,6.524,14.219,9.213,23.576,4.82c4.6-2.16,9.784-1.846,14.428,1.346c7.237,4.973,14.992,4.438,22.611,1.133
	c2.734-1.187,5.332-2.514,8.23-1.647c11.185,3.343,22.721,3.481,34.214,3.837c6.702,0.207,9.364,5.073,12.356,9.712
	c1.449,2.247,2.118,4.805,2.756,7.392c0.635,2.576,1.886,4.929,3.444,7.095c-1.093-2.07-2.564-3.964-3.154-6.271
	c-0.844-3.313-0.839-6.7-0.231-10.02c0.615-3.356,2.433-5.705,6.25-5.736c9.393-0.076,18.473-1.261,27.577-4.195
	c6.615-2.132,12.964,0.862,17.076,7.07C1733.675,246.254,1733.675,260.217,1733.675,274.183z"/>
<path fill-rule="evenodd" clip-rule="evenodd" fill="#313131" d="M800.461,246.734c-6.667-6.969-5.179-15.367-4.072-23.658
	c0.546-4.097,0.272-7.704-3.957-9.862c-4.29-2.188-4.593-6.399-5.238-10.471c-0.344-2.174-1.029-4.654-3.77-4.464
	c-2.856,0.197-3.165,2.994-2.914,5.012c0.727,5.834-1.014,11.479-0.913,17.211c0.074,4.194-1.532,5.37-5.599,5.268
	c-7.831-0.199-8.606,1.027-5.206,7.838c1.627,3.261,0.177,5.1-2.486,5.066c-4.665-0.059-8.986,1.769-13.478,1.854
	c-5.802,0.113-10.924-2.739-11.821-8.563c-1.04-6.754-7.13-5.654-10.676-8.198c-1.822-1.307-2.859,2.437-2.961,4.521
	c-0.246,5.029-0.287,10.067-0.369,15.102c-0.043,2.743,1.296,6.23-3.148,6.729c-3.971,0.446-8.276,3.719-11.695-1.543
	c-5.78-8.896-11.785-17.668-14.063-28.262c-0.818-3.806-1.824-6.346-6.644-4.874c-4.178,1.276-8.154,1.954-6.048,7.959
	c2.84,8.096-4.012,15.051-3.033,23.063c0.188,1.535-2.025,2.593-3.891,2.46c-2.196-0.155-3.599-1.603-4.042-3.579
	c-0.787-3.508-1.012-7.15-1.921-10.618c-0.709-2.705-1.633-6.294-5.457-5.359c-3.718,0.908-3.21,4.179-2.416,7.158
	c0.724,2.717,2.626,5.91-0.137,8.055c-2.582,2.004-5.672-0.132-8.123-1.291c-4.067-1.921-11.002-1.563-8.974-9.464
	c0.108-0.424-0.59-1.453-1.041-1.542c-1.122-0.218-1.859,0.722-1.941,1.677c-0.522,6.089-5.572,11.469-2.779,18.107
	c0.431,1.024,0.539,2.583,0.066,3.528c-6.123,12.207-12.649,24.134-24.561,31.899c-1.515,0.989-3.175,1.61-4.728,0.577
	c-3.324-2.209-6.304-3.561-9.103,0.793c-0.75,1.167-2.732,0.86-2.747-0.537c-0.046-4.657-4.526-8.813-1.331-13.844
	c1.732-2.729,1.523-5.728-1.175-7.787c-4.496-3.433-5.675-8.088-5.792-13.363c-0.048-2.18-0.466-4.471-2.87-5.385
	c-2.604-0.992-3.626,1.923-5.35,2.496c-8.067,2.683-9.528,10.157-12.985,16.322c-3.264,5.82-7.673,6.718-13.24,3.354
	c-1.231-0.745-2.508-2.209-3.681-2.129c-9.553,0.659-13.332-7.481-19.071-12.435c-5.96-5.146-13.438-5.534-19.407-0.118
	c-1.957,1.774-3.869,3.637-5.552,5.665c-2.54,3.061-5.241,3.795-8.822,1.731c-2.794-1.611-6.031-1.941-9.135-1.253
	c-5.661,1.256-7.93-1.131-8.502-6.581c-0.31-2.948-0.712-7.103-4.801-6.91c-3.906,0.184-3.918,4.286-4.564,7.266
	c-0.354,1.637-0.262,3.365-0.564,5.017c-0.355,1.948-1.031,3.57-3.076,1.129c-3.95-4.718-7.891-3.021-12.031-0.178
	c-4.159,2.858-8.514,5.43-12.752,8.175c-3.183,2.06-6.429,3.138-10.211,1.575c-2.897-1.198-5.578-0.566-8.15,1.268
	c-8.647,6.164-17.893,4.636-26.825,1.195c-8.843-3.407-15.588-2.366-21.758,4.705c-1.306,1.495-2.679,3.02-4.676,3.124
	c-7.909,0.418-15.831,0.912-23.741,0.817c-3.772-0.045-5.941-2.55-5.989-6.724c-0.034-2.881,2.756-8.006-2.752-7.742
	c-4.835,0.231-11.053,0.902-12.057,8.01c-0.269,1.905-0.21,3.876-0.661,5.729c-1.416,5.833-4.827,7.174-9.953,4.05
	c-0.789-0.479-1.94-1.623-2.243-1.425c-1.294,0.853-0.23,2.11-0.084,3.213c0.377,2.854,0.785,5.703,1.181,8.555
	c-10.112,0-20.225,0-30.337,0c0.702-13.264,12.747-30.877,25.238-32.529c8.163-1.079,13.963-4.154,20.723-7.979
	c6.947-3.93,11.796-10.199,18.792-13.78c2.02-1.032,3.432-3.979,6.074-2.27c2.514,1.625,0.631,3.885-0.165,5.777
	c-1.287,3.06-1.385,6.053,0.068,9.07c2.417,5.019,5.443,5.64,9.459,1.846c1.647-1.556,2.66-4.604,5.713-2.824
	c2.818,1.642,3.485,4.367,2.873,7.529c-0.247,1.267-1.833,3.027-0.108,3.776c1.349,0.587,2.274-1.381,3.09-2.522
	c6.306-8.817,13.753-11.21,25.078-8.018c2.313,0.652,4.605,1.404,6.945,1.938c1.897,0.433,3.965,0.635,5.452-0.924
	c1.99-2.086-0.407-3.224-1.153-4.847c-2.396-5.205,1.596-5.911,4.963-5.7c4.57,0.284,8.628,0.705,10.732-4.625
	c0.666-1.688,2.432-1.663,3.265,0.099c3.284,6.944,8.007,4.162,11.783,1.222c5.124-3.99,10.04-8.05,15.938-11.015
	c4.131-2.078,5.907-6.301,4.553-11.108c-1.128-4.007,1.769-4.877,4.334-6.258c2.926-1.574,5.61-4.158,9.137-1.297
	c2.838,2.301,5.038,4.612,1.818,8.354c-3.447,4.006-1.536,6.808,2.195,9.447c5.375,3.802,12.161,5.641,15.577,12.275
	c1.485,2.884,4.773,1.438,7-0.189c2.126-1.558,3.938-3.539,6.039-5.135c1.607-1.222,3.912-2.253,4.292,0.828
	c0.336,2.723-1.326,5.949,2.943,6.863c4.888,1.047,9.763,3.025,14.636-0.206c4.913-3.256,10.833-5.333,10.532-13.142
	c-0.143-3.707,3.709-3.889,6.624-3.927c4.92-0.063,9.58-0.673,13.462-4.146c1.195-1.069,2.857-2.521,4.273-0.487
	c1.101,1.58,0.431,3.79-1.121,4.413c-6.475,2.602-7.995,6.983-6.912,13.681c0.569,3.52-3.027,6.293-5.559,8.902
	c-1.731,1.786-4.893,3.711-1.5,6.342c2.688,2.084,6.275,1.259,7.366-1.744c2.897-7.973,8.4-8.203,15.606-7.499
	c5.531,0.54,10.628-3.902,16.557-3.651c0.757,0.033,2.229-1.581,2.279-2.491c0.404-7.412,4.694-14.573,2.02-22.1
	c-1.468-4.132,0.553-5.816,3.547-7.336c1.296-0.657,2.799-1.114,4.048,0.021c1.067,0.971,0.558,2.23,0.055,3.322
	c-1.229,2.663-0.974,5.021,0.912,7.376c5.723,7.146,5.959,12.36-0.552,19.036c-4.892,5.017-6.89,10.8-7.964,17.294
	c-0.315,1.903-1.071,3.986,1.136,5.145c2.089,1.097,3.634-0.439,5.095-1.689c2.976-2.549,5.034-5.776,6.852-9.208
	c1.77-3.339,4.208-6.582,8.363-5.363c3.903,1.143,8.771,2.053,8.959,7.856c0.065,2.018,0.479,4.169,3.082,3.951
	c2.412-0.2,4.396-2.283,4.188-4.323c-0.745-7.306,3.483-13.872,2.386-21.288c-1.375-9.306,3.747-14.194,13.411-13.882
	c2.625,0.086,5.314,0.303,7.868-0.146c2.646-0.465,6.038-2.126,5.774-4.699c-1.023-9.978,7.062-10.489,12.858-12.447
	c13.458-4.547,13.571-4.2,14.221-18.979c0.029-0.675,0.158-1.84,0.467-1.922c1.388-0.367,1.471,0.951,1.574,1.774
	c0.479,3.832,2.595,5.948,6.306,6.922c3.972,1.042,4.336,4.697,5.247,7.938c2.411,8.576,14.61,11.649,20.867,5.308
	c1.331-1.349,3.549-3.431,3.759,0.159c0.356,6.083,3.167,3.925,6.103,2.534c2.09-0.989,4.206-3.416,6.513-1.587
	c2.279,1.807-0.181,3.925-0.784,5.843c-1.081,3.444-0.24,6.645,2.735,8.179c3.578,1.842,4.861-1.78,6.443-4.069
	c1.3-1.882,1.857-5.059,4.61-0.689c2.746,4.359,5.076,1.735,5.42-1.713c0.333-3.344,0.487-4.596,4.507-3.589
	c5.839,1.462,9.729-2.272,10.147-7.559c1.229-15.501,7.653-31,0.101-46.656c-2.017-4.181-0.881-8.537,3.718-11.188
	c1.952-1.124,3.269-2.882,3.787-5.081c1.216-5.161,3.982-7.694,9.373-5.473c4.144,1.708,6.544,8.343,3.464,12.372
	c-4.527,5.921-6.514,12.799-9.281,19.396c-1.574,3.752-2.623,7.73-3.811,11.637c-0.929,3.055,0.26,5.676,2.012,8.092
	c0.987,1.359,1.991,2.916,4.012,2.482c1.961-0.422,2.819-2.15,2.716-3.815c-0.678-10.979,10.29-16.495,12.216-26.257
	c0.246-1.241,1.799-2.904,3.215-2.256c1.927,0.884,0.321,2.503-0.222,3.617c-1.841,3.779-1.483,6.97,2.089,9.503
	c2.542,1.802,2.781,4.233,2.154,7.057c-0.533,2.397-0.941,5.162,2.275,5.907c3.213,0.743,5.144-1.551,5.742-4.238
	c1.77-7.954,3.349-15.961,4.675-24.001c2.072-12.577,7.85-24.185,9.311-36.953c0.468-4.089,3.212-8.051,7.558-8.884
	c6.506-1.244,6.451-5.376,6.875-10.596c0.775-9.547,4.52-18.066,12.585-23.928c2.218-1.612,5.388-3.753,7.603-0.441
	c2.058,3.078-1.645,3.817-3.348,5.18c-1.397,1.117-2.552,2.476-2.407,4.227c1.005,12.069-8.038,21.366-8.962,32.974
	c-0.375,4.705-5.224,7.343-7.464,11.309c-1.664,0.945-2.731,2.198-2.8,4.274c-0.274,8.255-6.92,14.333-7.666,22.559
	c-0.293,3.229-2.609,6.118-4.76,8.748c-2.012,2.458-3.694,5.247-3.749,8.413c-0.121,6.945-3.435,12.637-5.859,18.872
	c-5.048,12.98-11.436,25.406-15.801,38.617c-0.951,2.877-3.486,6.583,0.178,9.714C804.608,239.169,804.298,243.827,800.461,246.734z
	"/>
<path fill-rule="evenodd" clip-rule="evenodd" fill="#202020" d="M892.925,261.094c9.984-2.299,13.253-12.259,20.3-17.932
	c1.789-1.439,2.804-3.889,5.052-5.006c3.528-1.754,5.448-4.019,2.762-7.954c-0.688-1.01-1.145-2.268-0.094-3.278
	c1.253-1.205,2.763-0.744,3.985,0.052c4.229,2.754,8.404,5.427,10.378,10.599c1.608,4.213,4.187,6.488,9.541,4.191
	c5.524-2.371,7.942,2.424,10.403,6.338c1.816,2.886,2.734,9.762,7.482,1.806c1.188-1.994,3.873-1.601,5.994-0.711
	c2.273,0.953,3.306,2.815,3.058,5.192c-0.173,1.655-0.754,3.269-1.158,4.898c-0.412,1.663-0.87,3.422,0.683,4.692
	c1.776,1.451,3.646,0.67,5.396-0.228c3.352-1.72,5.183-4.937,7.512-7.672c6.163-7.24,8.42-7.483,15.513-1.063
	c3.344,3.028,4.685,1.09,5.569-1.829c1.792-5.908,3.6-10.753,11.823-8.753c3.862,0.94,6.689-3.016,6.825-6.905
	c0.236-6.819,3.595-10.545,9.8-12.543c2.682-0.863,6.013-1.992,5.056-5.828c-1.019-4.081-4.536-3.624-7.712-3.229
	c-3.09,0.385-6.168,1.204-9.251,1.204c-2.325,0-5.287-0.691-4.658-4.047c0.467-2.491,3.197-3.639,5.135-2.651
	c5.853,2.981,11.334,2.858,17.17,0.034c1.78-0.86,3.578,0.954,5.025,2.25c2.014,1.803,4.134,3.229,7.034,3.192
	c1.715-0.021,4.337-1.076,4.407,2.014c0.051,2.206-1.892,3.491-3.84,3.706c-8.25,0.907-6.648,4.757-3.938,10.265
	c2.534,5.146,3.447,11.122,9.414,13.856c1.298,0.595,2.72,1.555,3.975,0.315c1.351-1.334,0.336-2.663-0.642-3.751
	c-1.478-1.646-2.7-3.404-2.93-5.668c-0.279-2.764,0.079-5.375,2.607-7.041c2.366-1.56,4.668-0.693,6.723,0.736
	c5.415,3.765,10.083,8.034,11.835,14.88c0.689,2.692,1.492,7.188,5.896,5.27c3.471-1.513,3.341-5.594,1.412-8.173
	c-2.804-3.749,0.725-8.499-2.986-12.226c-1.729-1.734,1.651-2.032,3.054-2.243c1.816-0.271,13.82,9.475,14.083,11.309
	c0.365,2.556-1.666,2.563-3.275,2.848c-4.27,0.752-3.947,3.281-2.745,6.433c3.462,9.077,7.267,10.894,12.931,5.925
	c1.019-0.893,2.478-2.552,2.228-3.426c-2.545-8.884,2.507-18.954-4.284-27.179c-0.9-1.089-2.866-2.955-0.74-4.246
	c1.688-1.024,3.474,0.829,3.803,2.371c1.277,5.997,5.862,8.344,10.693,10.749c5.069,2.522,6.792,7.958,9.798,12.239
	c4.107,5.848,8.458,10.739,16.639,7.528c1.688-0.662,3.838-0.459,4.348,1.4c3.018,11.008,13.983,14.941,20.688,22.64
	c5.466,6.275,11.796,11.694,15.468,19.405c-93.418,0-186.837,0-280.254,0c-2.922-1.777-4.491-5.121-7.677-6.586
	c-3.383-1.644-6.549-3.147-10.73-2.388c-4.166,0.756-7.324-3.149-5.972-7.179c1.545-4.6,2.566-9.727,7.814-12.194
	C891.835,266.337,893.275,264.09,892.925,261.094z"/>
<path fill-rule="evenodd" clip-rule="evenodd" fill="#505050" d="M1733.675,173.06c0,16.854,0,33.707,0,50.562
	c-2.272,2.937-5.042,3.5-8.545,2.254c-4.766-1.695-9.761-3.005-13.942-5.839c-12.821-8.688-27.357-9.899-42.128-10.104
	c-12.51-0.173-25.024-0.119-37.534-0.018c-18.985,0.154-37.77-3.449-56.751-2.99c-8.784,0.213-17.668,1.037-26.336,0.382
	c-9.671-0.728-19.858-0.152-28.574-6.729c-5.167-3.896-11.653-5.462-18.441-5.558c-10.192-0.144-19.06-4.747-27.938-9.209
	c-11.106-5.581-19.571-14.861-30.124-21.212c-3.914-2.357-7.646-5.035-11.868-6.833c-3.037-1.292-3.943-3.291-2.587-6.313
	c5.88-3.685,12.639-3.318,18.883-2.758c15.412,1.382,30.745-1.043,46.125-0.057c7.452,0.477,14.992-0.065,21.797,3.792
	c15.457,8.76,31.922,11.747,49.375,8.332c15.617-3.056,31.159-0.231,46.68,0.516c18.443,0.89,36.758,3.252,55.279,0.255
	c7.219-1.17,14.827-1.113,22.075,1.46c3.643,1.292,7.567,2.07,11.365,1.296c10.891-2.222,20.177,3.157,30.002,5.956
	C1731.82,170.626,1732.619,172.104,1733.675,173.06z"/>
<path fill-rule="evenodd" clip-rule="evenodd" fill="#3D3D3D" d="M1430.286,152.86c9.973,4.912,18.705,11.197,26.795,19.105
	c12.379,12.106,27.045,20.685,45.477,20.042c3.053-0.107,6.657,0.122,9.131,1.633c9.531,5.817,19.904,8.109,30.788,9.568
	c6.698,0.896,13.361,0.011,19.882-0.084c17.458-0.255,34.688,0.742,52.041,2.493c13.821,1.394,27.869,0.542,41.817,0.657
	c10.814,0.089,21.608-0.074,32.412,1.246c6.618,0.81,12.629,2.513,18.314,5.935c8.278,4.981,16.846,9.347,26.732,10.165
	c0,2.889,0,5.778,0,8.667c-11.733-7.172-23.248,0.292-34.87,0.545c-1.43,0.031-2.848,0.47-4.283,0.594
	c-3.707,0.322-8.312-0.68-8.328,5.267c-0.014,4.935,0.302,9.999,6.397,11.385c3.106,0.705,5.287,1.66,3.637,5.169
	c-1.657,3.525-4.19,6.104-8.563,4.192c-3.346-1.463-4.916-4.534-6.006-7.769c-8.815-26.177-9.917-19.362-33.19-21.384
	c-3.117-0.271-6.226-0.227-9.195-1.313c-4.649-1.703-8.377-0.881-13.347,0.984c-7.063,2.647-16.071,4.179-23.178-1.079
	c-5.4-3.995-10.603-4.835-16.023-1.673c-8.914,5.199-15.907,0.899-22.17-4.413c-4.277-3.63-8.02-5.361-13.607-3.889
	c-5.521,1.456-10.468-1.181-14.707-4.424c-12.013-9.195-24.938-15.066-40.233-17.852c-14.302-2.604-27.085-10.898-38.948-19.743
	c-1.923-1.435-3.801-3.401-5.987-3.931c-12.077-2.917-23.11-7.383-32.077-16.564c-3.324-3.404-8.412-1.72-12.309,0.214
	c-9.089,4.512-17.055,3.618-24.362-3.59c-3.466-3.42-6.7-3.268-9.285,1.35c-1.04,1.858-2.411,3.604-3.927,5.105
	c-1.722,1.706-3.867,3.215-6.453,2.155c-2.746-1.125-3.631-3.738-3.895-6.451c-0.296-3.043,1.352-5.055,4.06-6.117
	c4.233-1.661,8.903-2.189,12.727-4.918c9.45,1.913,18.734,2.497,28.421,0.32c6.13-1.377,12.873,0.325,19.099,1.743
	C1426.039,146.877,1430.379,147.985,1430.286,152.86z"/>
<path fill-rule="evenodd" clip-rule="evenodd" fill="#8A8A8A" d="M0.145,144.167c9.791-3.13,19.089-3.346,27.819,3.407
	c3.046,2.356,7.213,3.252,11.007,1.485c7.445-3.468,14.798-1.454,21.832,0.609c7.992,2.345,15.558,1.779,23.408-0.121
	c10.462-2.533,21.021-4.668,31.539-6.974c11.359-2.187,20.915,2.876,30.353,7.891c2.337,1.241,4.87,3.289,4.913,6.669
	c0.311,4.466-3.407,5.281-6.245,5.901c-16.864,3.678-31.758,11.896-47.053,19.378c-16.506,8.073-34.598,11.477-52.277,16.008
	c-11.937,3.06-24.071,4.275-36.367,4.221c-3.491-0.016-6.705-0.505-8.928-3.579C0.145,180.764,0.145,162.466,0.145,144.167z"/>
<path fill-rule="evenodd" clip-rule="evenodd" fill="#666666" d="M1430.286,152.86c-12.314-6.711-24.924-7.301-37.883-1.961
	c-7.744,3.192-11.191-4.607-16.854-6.761c-0.081-0.442-0.168-0.884-0.26-1.324c3.867-0.058,7.735-0.28,11.367-1.719
	c7.748-3.066,15.146-3.099,23.072,0.253c7.2,3.046,15.261,0.161,22.889,1.305c3.078,0.463,6.504-0.3,9.306,0.742
	c22.037,8.199,44.201,2.84,66.321,0.945c4.786-0.41,9.469-1.358,14.344-0.552c5.746,0.951,10.931-1.28,15.857-3.899
	c4.764-2.533,9.428-3.466,14.385-0.616c5.251,3.018,10.898,0.393,16.348,1.018c19.288,2.213,38.595,4.263,57.912,6.208
	c2.815,0.284,5.811,0.037,8.571-0.609c6.687-1.565,13.311-1.946,20.005-0.274c9.878,2.765,19.88,4.516,30.198,3.784
	c2.93-0.207,5.775,0.48,8.351,1.694c9.705,4.584,20.214,5.412,30.605,6.711c3.396,0.425,6.659,0.637,8.854,3.698
	c0,3.853,0,7.704,0,11.557c-4.867,0.197-9.563-0.46-14.085-2.425c-6.075-2.643-12.299-3.738-18.99-2.344
	c-2.713,0.566-5.933,0.439-8.529-0.48c-10.556-3.742-21.392-3.42-32.012-1.688c-15.719,2.564-31.17-0.302-46.717-0.942
	c-17.715-0.729-35.306-3.065-53.128-0.021c-12.427,2.122-25.255,1.364-36.596-4.846c-18.362-10.055-38.096-10.729-58.124-9.918
	C1453.744,150.873,1442.021,152.017,1430.286,152.86z"/>
<path fill-rule="evenodd" clip-rule="evenodd" fill="#444444" d="M892.925,261.094c1.383,0.395,2.743,0.918,4.151,1.16
	c3.637,0.627,3.11,1.649,0.755,3.731c-4.44,3.927-10.909,6.301-11.093,13.754c-0.019,0.758-1.45,1.625-0.478,2.39
	c0.475,0.374,1.722-0.08,2.558-0.349c5.918-1.898,9.828,0.577,12.571,5.674c-0.454,3.257,0.938,7.425-4.144,8.397
	c-28.892,0-57.785,0-86.677,0c15.262-15.598,31.692-29.949,47.69-44.764c6.961-4.199,13.553-9.186,22.069-10.015
	c0.818-0.08,1.822-0.893,2.278-1.645c5.928-9.775,15-17.642,17.718-29.369c2.116-9.137,9.554-15.442,12.947-23.946
	c0.815-2.046,3.345-2.615,5.422-3.274c4.447-1.411,8.468-3.374,11.061-7.561c1.038-1.677,2.758-2.597,4.686-3.158
	c8.687-2.525,11.706,0.092,11.299,8.941c-0.185,4.008-3.773,8.373,0.607,12.188c0.833,4.89-4.557,3.5-6.184,5.845
	c-4.813,1.072-6.328,3.688-7.418,8.894c-1.49,7.108-7.816,11.929-14.812,14.753c-1.401,0.566-2.553,1.079-3.358,2.316
	c-0.356,1.636-1.032,3.274-1.007,4.902c0.064,4.117-0.792,4.683-3.377,1.217c-1.74-2.335-3.736-1.522-5.706-0.237
	c-2.317,1.513-3.269,3.326-1.884,6.08c3.597,7.145-0.083,11.942-5.515,15.943c-3.265,2.405-6.744,4.524-10.176,6.695
	c-1.348,0.851-3.709,1.168-2.476,3.434c0.86,1.579,2.563,0.642,3.883,0.065C889.861,262.481,891.39,261.781,892.925,261.094z"/>
<path fill-rule="evenodd" clip-rule="evenodd" fill="#A0A0A0" d="M0.145,199.063c32.089,1.279,62.145-7.934,91.938-18.156
	c6.058-2.078,11.463-5.993,17.317-8.745c11.063-5.2,22.004-10.765,34.431-12.244c1.751-0.209,3.349-1.69,5.018-2.582
	c0.708-4.04,4.03-3.535,6.758-3.681c5.309-0.283,10.502-1.007,15.483-2.926c6.078-2.342,11.743,0.435,17.559,1.392
	c3.167,4.053,7.29,2.851,11.156,1.768c12.767-3.579,24.959-8.931,37.913-12.027c13.394-3.202,26.862-4.444,40.564-3.462
	c2.758,0.198,5.671,1.171,7.643-1.844c6.777-2.756,14.343-2.244,21.118-5.164c2.06-0.888,3.547,0.468,3.894,2.746
	c-5.116,9.829-15.225,10.681-24.24,12.984c-14.332,3.663-29.508-0.822-43.954,4.931c-7.125,2.839-12.135,8.366-19.151,11.153
	c-11.761,4.673-23.363,7.037-35.324,1.664c-5.253-2.359-10.744-1.41-15.948-2.347c-18.283-3.288-32.876,5.023-46.732,14.313
	c-7.613,5.105-14.998,10.75-22.469,16.173c-13.147,9.544-28.387,13.564-43.211,18.841c-2.631,0.937-5.136-0.076-7.651-1.106
	c-14.173-5.804-26.231-1.994-36.891,8.23c-4.241,4.069-9.609,4.858-15.222,4.647C0.145,215.435,0.145,207.249,0.145,199.063z"/>
<path fill-rule="evenodd" clip-rule="evenodd" fill="#313131" d="M499.979,295.852c0.413-3.442,1.342-6.848,4.355-8.758
	c6.088-3.855,11.135-8.319,15.805-14.103c2.733-3.383,11.086-2.749,16.929-2.838c2.297-0.035,1.641,13.089-0.937,14.58
	c-2.367,1.371-2.756-0.952-3.608-2.202c-1.35-1.979-3.49-3.906-5.123-1.522c-3.992,5.829-11.246,8.346-14.42,14.843
	C508.646,295.852,504.313,295.852,499.979,295.852z"/>
<path fill-rule="evenodd" clip-rule="evenodd" fill="#444444" d="M897.247,295.852c2.317-2.338,0.479-6.727,4.145-8.397
	c0.924,3.114,6.156,3.907,4.523,8.397C903.025,295.852,900.135,295.852,897.247,295.852z"/>
<path fill-rule="evenodd" clip-rule="evenodd" fill="#525252" d="M326.481,109.322c4.159,2.213,9.646,1.572,12.79,6.029
	c0.574,0.813,1.842,1.044,2.417,0.045c0.386-0.673,0.415-1.987,0-2.615c-2.989-4.524-0.616-8.85,0.392-13.186
	c0.303-1.299,1.042-3.124,2.882-2.413c1.411,0.546,0.673,2.051,0.332,3.189c-0.395,1.323-1.533,3.296,0.07,3.826
	c2.291,0.759,2.176-1.896,2.853-3.261c1.443-2.906,1.93-6.485,5.608-7.774c1.033,3.351-1.524,5.832-2.136,8.785
	c-0.146,0.703-0.529,1.368-0.608,2.073c-0.426,3.802-5.125,6.59-3.426,10.198c0.461,0.979,6.279-0.939,9.813,1.225
	c2.595,1.589,4.556-0.996,4.811-3.634c0.37-3.812,0.194-7.675,0.303-11.515c0.051-1.833-1.14-4.198,0.923-5.314
	c2.275-1.231,3.32,1.088,4.526,2.519c0.154,0.184,0.281,0.505,0.461,0.536c12.696,2.281,6.583,10.974,5.996,17.718
	c-0.265,3.051-0.408,3.037-3.357,1.544c-2.516-1.273-3.578,0.831-4.543,2.277c-2.709,4.053-2.622,8.675-1.915,13.25
	c0.619,3.999-0.92,6.166-4.657,7.712c-8.634,3.572-10.158,7.077-7.594,16.001c0.333,1.158,1.163,2.472-0.32,3.141
	c-2.094,0.945-4.268,0.352-6.253-0.612c-1.737-0.842-2.646-2.472-1.785-4.183c3.687-7.315-0.534-8.135-6.319-8.24
	c-3.568-0.065-5.781-2.421-6.419-5.813c-1.12-5.949-2-12.272,1.998-17.297c3.01-3.784-0.868-4.444-1.792-6.368
	c-1.622-3.378-3.625-1.103-5.193,0.105c-2.534,1.951-5.145,3.544-8.415,3.767C321.028,117.316,321.89,111.957,326.481,109.322z"/>
<path fill-rule="evenodd" clip-rule="evenodd" fill="#2D2D2D" d="M1031.675,18.231c0.546,2.637,1.481,5.151,3.375,7.079
	c4.049,4.12,5.347,8.804,4.179,14.517c-0.906,4.436,0.072,8.768,3.688,11.861c8.733,7.473,9.272,19.295,15.165,28.288
	c1.321,2.017,0.503,4.794-1.265,6.707c-2.098,2.272-3.804,0.61-5.572-0.756c-3.328-2.573-5.493-0.209-7.129,2.192
	c-4.595,6.749-9.341,13.445-13.284,20.574c-4.215,7.62-10.61,13.905-17.249,17.999c-5.818,3.588-12.984,4.083-15.815,12.072
	c-0.758,2.14-3.647-0.177-3.521-2.243c0.582-9.586-6.337-14.957-11.523-21.325c-4.586-0.693-3.079-3.948-1.758-5.786
	c6.053-8.423,10.659-17.489,14.381-27.166c1.988-5.17,6.475-9.038,11.162-11.733c4.206-2.418,5.771-5.169,4.886-9.672
	c2.048-8.355,6.188-15.558,12.052-21.803c1.322-3.646,3.274-6.974-3.386-7.824c-5.715-0.729-6.578-3.426-4.295-9.227
	c1.85-4.702,3.603-9.717,10.424-8.12C1028.337,14.919,1030.301,16.204,1031.675,18.231z"/>
<path fill-rule="evenodd" clip-rule="evenodd" fill="#2D2D2D" d="M979.488,73.364c-7.157,6.755-14.047,13.757-20.079,21.563
	c-0.989,1.28-1.948,3.085-4.01,2.222c-1.534-0.642-1.475-2.303-1.581-3.738c-0.122-1.633,0.294-3.681-1.829-4.235
	s-3.752,0.81-4.843,2.433c-1.33,1.98-2.351,4.17-3.491,6.276c-1.984,3.669-4.668,5.307-7.785,1.54
	c-3.544-4.281-5.571-2.223-7.447,1.253c-2.721,5.045-6.818,7.971-12.533,8.506c-1.889,0.178-4.143,0.578-5.157-1.501
	c-1.197-2.452,0.648-4.141,2.396-5.396c2.909-2.089,6.292-3.602,7.821-7.182c0.562-1.315,1.517-2.769,0.477-4.036
	c-1.436-1.75-3.004-0.281-4.551,0.226c-2.819,0.924-5.127,6.721-8.148,2.638c-2.442-3.301,1.173-7.26,3.664-10.082
	c4.247-4.813,10.095-8.262,12.33-14.76c0.058-0.331,0.115-0.661,0.169-1.001c3.051-2.021,6.068-1.73,8.058,1.201
	c2.398,3.533,4.704,3.191,6.642,0.187c3.762-5.832,8.418-10.341,14.688-13.562c4.941-2.538,5.621-8.529,8.367-12.882
	c4.491-2.076,5.38,0.935,6.106,4.249c0.253,1.156,0.627,2.655,2.051,2.456c1.786-0.249,1.788-1.955,1.709-3.396
	c-0.094-1.705-0.798-3.236-1.635-4.691c-0.843-1.464-2.244-3.477-1.097-4.598c4.596-4.495,2.112-11.438,6.427-16.318
	c3.133-3.543-1.549-7.155-3.219-10.502c-0.909-1.824-3.445-2.536-4.326-4.658c-0.243-3.677,2.785-4.319,5.155-5.575
	c6.415,0.915,11.416,5.223,17.37,7.247c0.662,0.306,1.374,0.336,2.088,0.413c2.261,0.244,5.286-1.042,6.434,1.761
	c1.389,3.397-2.174,4.183-3.959,5.896c-7.261,6.962-8.052,16.479-9.945,25.547c-0.131,0.628-0.336,1.547,0.615,1.716
	c0.694,0.123,1.336-0.429,1.901-0.839c2.023-1.468,2.972-3.651,3.984-5.85c3.7-8.027,7.554-15.846,13.605-22.615
	c3.749-4.196,7.397-5.961,12.676-4.893l-0.013,0.055c3.068,1.827,3.92,3.877,1.177,6.86c-4.287,4.663-6.176,9.759-4.151,16.404
	c1.205,3.956,0.811,8.63-1.82,12.371c-1.412,2.009-3.363,4.202-6.038,3.801c-3.05-0.459-2.993-3.598-3.705-5.942
	c-0.228-0.752,0.494-1.256,0.331-1.947c-0.494,0.468-0.443,1.173-1.016,1.715c-3.111,2.942-6.884,5.416-7.833,10.063
	C991.356,59.847,985.481,66.649,979.488,73.364z"/>
<path fill-rule="evenodd" clip-rule="evenodd" fill="#888888" d="M738.175,96.301c-1.793,1.577-3.586,3.154-5.379,4.732
	c-11.521,4.838-23.998,6.11-35.885,9.587c-1.37,0.4-2.81,0.956-4.235,0.79c-18.759-2.201-36.49,5.643-54.988,5.62
	c-10.771-0.013-21.487-2.472-32.323-0.764c-10.044,1.583-20.098,1.776-30.132-0.183c-1.178-0.23-2.413-0.227-3.547-0.617
	c-2.486-0.854-5.335-1.539-5.95-4.557c-0.578-2.835,1.888-4.065,3.746-5.495c5.627-0.027,10.93-1.883,16.088-3.644
	c10.04-3.43,20.084-3.417,30.479-2.517c20.96,1.813,41.512-0.038,61.065-8.729c5.557-2.47,11.384-3.491,17.529-1.717
	C708.866,92.916,724.23,90.489,738.175,96.301z"/>
<path fill-rule="evenodd" clip-rule="evenodd" fill="#484848" d="M973.816,0c-0.937,1.831-1.874,3.661-2.811,5.492
	c2.514,7.952-3.876,11.998-7.73,17.005c-1.541,2.002-3.854,3.528-5.775,5.334c-7.534,7.082-12.501,14.929-9.09,25.789
	c-1.251,5.655-4.375,10.349-7.808,14.749c-2.138,2.739-4.77,5.17-8.594,1.51c-1.889-1.809-4.465-4.1-7.258-0.803l-0.031,0.013
	c-5.854,2.929-10.096,1.657-12.472-4.706c-0.861-2.307-2.2-4.939-4.772-4.819c-7.878,0.365-11.516-4.188-14.077-10.67
	c-0.675-1.708-2.265-3.056-3.434-4.567c8.847-6.889,15.141-16.417,24.136-23.187c6.925-5.211,12.318-12.391,20.971-15.406
	c3.297-1.15,6.428-1.785,9.827-1.424c2.888,4.516-0.423,6.164-3.721,7.152c-4.544,1.361-8.158,4.103-11.631,7.011
	c-4.85,4.062-5.001,9.145-0.813,13.744c3.945,4.336,2.748,15.772-2.078,19.085c-0.362,0.248-0.905,0.126-0.835,0.787
	c0.151-0.479,0.722-0.604,0.913-0.832c1.287-1.536,3.269-3.301,3.325-4.912c0.263-7.449,4.668-13.568,6.019-20.64
	c0.99-5.176,3.996-9.446,8.794-11.604c4.697-2.113,7.714-5.53,10.205-9.723C961.855,5.197,967.292,0.268,973.816,0z"/>
<path fill-rule="evenodd" clip-rule="evenodd" fill="#A3A3A3" d="M569.481,105.415c-0.951,4.756,1.587,6.136,5.824,7.012
	c12.758,2.64,25.358,0.526,37.994-0.676c3.122-0.298,6.221-0.841,9.304-0.08c11.237,2.77,22.581,1.752,33.57-0.495
	c16.089-3.291,32.577-2.144,48.613-5.444c5.412-1.113,10.816-2.1,16.094-3.827c3.821-1.252,7.793-2.715,11.915-0.871
	c-2.11,2.287-4.145,4.651-6.363,6.83c-0.99,0.972-2.818,2.517-3.468,2.195c-11.126-5.515-19.216,4.681-29.103,5.581
	c-3.467,0.315-6.359,1.604-10.113-0.117c-8.946-4.102-16.197-0.535-22.131,6.554c-6.915,3.235-13.854,3.426-20.835,0.199
	c-0.863-0.399-2.046-1.202-2.648-0.914c-12.5,5.987-27.751,0.323-39.596,9.71c-4.944,3.918-10.567,4.642-16.256-0.521
	c-8.981-8.153-20.91-12.669-28.507-22.64C559.273,108.736,564.034,104.913,569.481,105.415z"/>
<path fill-rule="evenodd" clip-rule="evenodd" fill="#454545" d="M992.811,50.582c2.934-6.194,9.775-10.178,10.102-17.875
	c0.024-0.559,0.66-1.435,1.164-1.562c1.163-0.294,1.734,0.74,1.912,1.651c0.453,2.339,0.724,4.715,1.074,7.075
	c0.238,1.596-0.073,3.843,2.221,3.855c2.515,0.014,2.762-2.201,2.843-4.195c0.021-0.476-0.059-0.957-0.101-1.435
	c-0.854-9.651-1.52-19.239,6.332-26.882c0.5-0.485,0.162-1.832,0.215-2.778c3.327,0.703,5.813,2.589,7.615,5.429
	c-1.768,1.914-3.764,3.671-5.235,5.791c-1.3,1.874-3.224,4.267-1.67,6.476c1.511,2.148,3.271-0.697,5.026-0.898
	c2.773-0.319,4.234,0.952,4.203,3.511c-0.048,3.972,0.589,8.174-2.481,11.526c-7.911,2.703-11.396,8.691-13.063,16.519
	c-0.653,3.066,1.357,3.567,2.672,4.974c-0.679,4.412-2.686,7.757-6.326,10.691c-6.5,5.235-11.893,11.119-13.878,20.086
	c-1.332,6.016-5.269,11.646-9.503,16.52c-1.615,1.859-3.137,3.565-3.212,6.137c-2.895,8.494,1.965,16.358,2.008,24.615
	c0.014,2.662,2.263,6.46-1.176,7.526c-2.711,0.842-4.671-2.646-6.207-5.073c-2.002-3.164-4.713-5.893-4.555-10.189
	c0.097-2.621-1.395-4.601-4.639-3.749c-6.339-2.724-3.718-7.369-1.002-10.036c9.767-9.59,10.904-23.712,18.78-34.235
	c1.769-2.363,1.354-5.718,0.979-8.871c-0.785-6.604-0.198-13.003,5.564-17.667C995.141,55.359,994.397,52.978,992.811,50.582z"/>
<path fill-rule="evenodd" clip-rule="evenodd" fill="#313131" d="M955.077,4.379c3.368,1.289,5.021,3.002,1.516,6.028
	c-0.544,0.47-0.933,1.215-1.547,1.494c-15.598,7.079-17.5,23.184-23.871,36.306c-1.899,3.912-3.766,7.793-6.684,11.031
	c-1.539,1.709-3.575,2.698-5.796,1.393c-2.506-1.471-1.964-3.731-0.622-5.601c2.047-2.853,1.937-7.172,7.299-7.787
	c3.938-0.451,3.826-7.921,0.067-11.043c-5.742-4.769-4.926-16.423,1.188-21.067c5.696-4.325,12.211-7.169,18.271-10.823
	C948.292,4.332,951.684,4.356,955.077,4.379z"/>
<path fill-rule="evenodd" clip-rule="evenodd" fill="#525252" d="M1018.585,8.383c-12.472,6.588-19.225,17.973-22.772,30.672
	c-2.131,7.633-9.611,7.056-12.949,12.033c-0.559,0.832-1.872-0.143-1.73-1.301c1.066-8.681,0.212-17.892,4.608-25.731
	c2.669-4.758,2.689-11.306,9.12-14.12c1.295-0.566-2.846-1.117-3.676-2.688c6.317-0.469,12.702,0.392,18.967-1.479
	C1013.247,4.846,1016.149,6.28,1018.585,8.383z"/>
<path fill-rule="evenodd" clip-rule="evenodd" fill="#4A4A4A" d="M525.368,185.945c2.175,10.808-4.249,15.16-12.297,18.141
	c-3.287,1.217-3.931,3.108-2.892,6.111c0.923,2.671,0.222,4.763-2.417,5.958c-1.998,0.905-4.209,1.768-6.067-0.01
	c-2.118-2.024-1.095-4.478-0.238-6.727c3.846-10.097,5.514-20.556,5.54-31.336c0.009-3.699-0.782-6.629-4.756-7.866
	c-4.476-1.393-4.457-3.913-1.353-6.769c2.181-2.006,3.707-4.337,4.877-7.032c1.198-2.759,3.035-4.688,6.019-2.01
	c4.083,3.665,6.604,1.202,8.574-2.218c2.078-3.605,4.591-5.719,9.045-5.961c4.245-0.231,6.439-3.899,8.447-7.191
	c1.952-3.198,4.399-4.896,8.307-4.315c1.616,0.24,3.393,0.16,4.974-0.249c9.065-2.341,12.121-1.277,16.156,7.311
	c2.324,4.945,4.522,5.861,8.339,1.732c0.574-0.62,1.841-1.359,2.364-1.119c1.415,0.649,0.988,2.18,0.395,3.129
	c-3.404,5.445-5.855,12.388-12.568,14.184c-10.133,2.712-16.06,10.238-22.276,17.427c-2.477,2.865-3.717,4.441-7.979,2.845
	C529.936,177.873,525.514,181.265,525.368,185.945z"/>
<path fill-rule="evenodd" clip-rule="evenodd" fill="#828282" d="M988.105,159.886c0.201-6.458,4.249-9.302,9.437-12.695
	c19.228-12.575,40.974-20.034,60.889-31.13c1.002-0.559,2.324-0.541,3.497-0.792c5.445-5.832,10.254-12.33,16.582-17.234
	c2.703-2.095,6.726-5.744,8.674,1.187c-0.434,3.108,1.333,5.258,3.255,7.34c1.905,2.064,3.932,4.074,3.345,7.28
	c-0.366,2.126-2.029,3.556-3.635,4.204c-11.713,4.729-18.198,15.35-26.658,23.648c-6.688,6.561-12.92,13.461-21.418,17.812
	c-3.232,1.655-5.972,4.176-8.076,7.085c-5.793,8.009-12.101,15.548-19.681,21.897c-2.975,2.493-2.396,6.37-4.447,9.125
	c-5.361,7.269-13.579,5.397-20.854,6.479c-6.611-1.72-8.452-5.389-3.482-8.69c8.611-5.722,10.896-16.069,18.513-22.203
	c1.316-1.062,2.104-2.554,2.558-4.22c1.085-3.982,0.081-5.972-4.473-5.118c-2.614,0.49-5.065,1.271-7.403,2.533
	c-2.209,1.192-4.443,1.631-6.658-0.14C985.344,164.08,987.375,162.002,988.105,159.886z"/>
<path fill-rule="evenodd" clip-rule="evenodd" fill="#2C2C2C" d="M806.21,235.151c-4.521-1.329-3.78-4.562-3.279-8.105
	c1.305-9.241,7.672-16.59,9.582-25.406c2.767-12.771,11.893-23.433,11.749-37.115c-0.031-2.868,2.026-5.313,4.013-7.467
	c3.604-3.908,5.603-8.098,3.926-13.717c-1.022-3.424,10.762-18.619,14.466-19.387c-1.028,7.408,0.99,15.068,0.027,22.084
	c-1.522,11.087-3.987,22.661-11.519,31.732c-5.83,7.021-8.139,14.369-5.669,23.243c0.631,2.266,0.541,4.746,0.667,7.134
	c0.132,2.517,1.283,5.892-2.319,6.564c-3.114,0.581-4.224-2.628-5.435-4.896c-0.532-0.997-0.552-2.293-0.702-3.465
	c-0.195-1.522,1.334-3.833-0.839-4.381c-2.31-0.581-3.128,1.985-3.723,3.647C813.617,215.502,808.707,224.882,806.21,235.151z"/>
<path fill-rule="evenodd" clip-rule="evenodd" fill="#4D4D4D" d="M939.088,196.144c2.419-0.965,4.839-1.93,7.259-2.895
	c0.012-12.816,8.011-22.369,14.429-32.17c1.516-2.316,8.663-1.826,11.163-6.512c0.909,0.694,2.085,1.213,2.685,2.113
	c2.939,4.416,7.295,4.969,12.013,4.708c3.521,4.703,2.547,9.008-0.859,13.368c-5.577,7.14-10.896,14.353-10.769,24.2
	c0.035,2.672-3.238,4.561-4.086,7.333c-4.6,2.284-10.24,0.696-14.585,3.926c-4.163,2.181-4.452-0.689-4.217-3.491
	c0.32-3.813,1.067-7.586,2.412-11.203c0.252-0.679,0.319-1.399,0.47-2.101c-1.037-0.058-1.267,0.926-1.771,1.475
	c-2.591,2.821-5.464,5.405-7.688,8.536c-1.885,2.653-4.385,3.601-7.47,3.229c-2.529-0.307-5.649-1.567-4.883-4.031
	C933.979,200.1,933.157,194.54,939.088,196.144z"/>
<path fill-rule="evenodd" clip-rule="evenodd" fill="#6D6D6D" d="M970.922,206.29c-4.782-5.378-0.551-10.702,0.816-15.54
	c1.57-5.563,4.726-10.75,8.655-15.4c3.306-3.914,6.71-8.18,6.243-13.96c0.489-0.502,0.979-1.003,1.469-1.504
	c0.77,2.804,2.422,4.409,5.209,2.627c5.668-3.621,12.12-2.012,18.164-3.024c2.738-0.459,3.406-0.203,2.699,3.813
	c-1.884,10.716-13.057,14.965-15.605,24.972c-0.869,3.415-4.534,5.291-7.682,7.175c-2.28,1.364-5.464,3.014-2.477,6.622
	c1.882,2.453-0.109,3.202-1.799,4.084C981.371,204.593,976.142,204.898,970.922,206.29z"/>
<path fill-rule="evenodd" clip-rule="evenodd" fill="#6D6D6D" d="M992.811,50.582c2.256,0.45,4.229-0.005,6.038-1.526
	c0.985-0.829,2.287-2.604,3.526-1.036c0.969,1.229-0.752,2.545-1.472,3.721c-0.75,1.227-1.434,2.589-2.475,3.527
	c-7.084,6.392-8.699,14.414-7.508,23.474c0.554,4.22-0.821,7.869-3.714,11.227c-3.619,4.198-5.836,9.342-7.909,14.46
	c-1.28,3.162-2.754,6.167-5.359,8.417c-4.778,4.126-6.463,9.348-5.787,15.482c-0.272,2.624-0.347,5.381-2.371,7.363
	c-3.12,3.059-4.656,6.506-3.882,10.973c0.322,1.859,0.219,4.064-2.394,4.441c-1.11,0.159-2.673,0.162-3.383-0.48
	c-1.724-1.559-1.102-3.837,0.063-5.233c4.967-5.962,6.099-12.594,4.721-20.069c-0.495-2.688,1.536-4.874,3.269-6.937
	c7.354-8.76,13.271-18.019,10.684-30.343c-0.661-3.151,2.014-4.776,4.103-6.216c3.979-2.739,4.198-5.398,0.527-8.462
	c-0.971-5.823,3.288-8.98,6.282-12.941C988.193,57.219,991.465,54.564,992.811,50.582z"/>
<path fill-rule="evenodd" clip-rule="evenodd" fill="#595959" d="M1084.994,100.784c-3.424-3.037-5.009,0.718-7.036,2.085
	c-5.604,3.779-8.705,10.81-16.03,12.399c0.478-5.53,3.311-9.396,7.556-13.003c4.198-3.568,9.446-6.701,10.463-13.018
	c0.172-1.072,1.168-1.255,2.129-1.555c5.866-1.828,11.701-3.758,17.547-5.652c1.106,0.968,2.213,1.936,3.32,2.903
	c-0.271,0.048-0.543,0.079-0.817,0.096c1.883,6.15,3.291,12.111-0.33,18.369c-2.957,5.111-4.507,6.051-9.586,3.061
	C1089.569,104.916,1086.716,103.539,1084.994,100.784z"/>
<path fill-rule="evenodd" clip-rule="evenodd" fill="#3D3D3D" d="M314.204,217c-2.608,6.202-4.833,12.537-9.341,17.236
	c-6.253,6.517-11.72,13.326-14.888,21.896c-0.745,2.016-1.793,5.385-4.845,4.055c-2.623-1.144-1.828-4.254-0.949-6.457
	c0.877-2.202,2.021-4.488,3.637-6.173c9.072-9.456,9.875-20.229,5.622-31.976c-0.653-1.805-1.115-3.689-1.534-5.566
	c-0.315-1.411-0.612-3.066,1.317-3.554c1.368-0.345,2.241,0.757,2.771,1.852c1.584,3.276,3.534,6.246,6.103,8.874
	c3.093,3.167,5.902,5.365,8.857-0.102c0.387-0.717,1.43-1.116,2.243-1.51C313.283,215.533,313.867,216.518,314.204,217z"/>
<path fill-rule="evenodd" clip-rule="evenodd" fill="#2D2D2D" d="M1084.994,100.784c1.625-0.03,3.365-0.456,4.856-0.024
	c7.708,2.236,9.214,1.399,10.782-6.674c0.583-2.999,0.784-6.609,1.276-9.626c8.001,3.558,14.923,9.021,17.812,17.801
	c3.889,6.106,10.239,8.598,16.373,11.621c3.374,1.663,9.083,1.838,7.813,8.199c-0.386,2.8,1.624,4.46,3.249,6.074
	c10.948,10.871,22.933,20.028,37.599,25.758c9.468,3.699,16.563,11.908,26.193,15.841c2.978,1.217,3.093,4.1,1.31,7.343
	c-3.789,6.89-0.595,12.061,7.396,12.707c9.561,0.773,18.591,2.39,24.153,11.699c1.972,3.302,2.023,6.85,2.878,10.31
	c0.212,0.858,0.417,2.103,1.62,1.948c0.668-0.084,0.714-1.155,0.793-1.861c0.33-2.957,1.604-5.472,3.32-7.874
	c3.925-5.492,3.61-7.654-1.997-10.837c-2.589-1.471-4.837-3.004-6.318-5.639c-1.998-3.559-5.095-5.659-9.095-6.513
	c-3.749-0.801-7.256-2.253-6.876-6.869c0.438-5.316,4.951-3.871,8.301-4.561c6.183-1.271,12.357-1.047,18.604-1.119
	c5.73-0.064,9.126,2.073,11.2,7.059c1.338,3.215,2.33,5.315,5.633,1.058c2.929-3.776,9.039-3.237,11.638,1.113
	c1.604,2.687,2.755,3.021,5.291,2.255c1.626-0.491,3.486-0.328,4.921,0.574c11.916,7.498,25.953,8.216,38.963,12.182
	c9.485,2.891,17.503,9.208,27.336,11.131c0.937,0.184-0.254,0.066,0.684,0.211c17.953,2.772,34.276,10.94,51.665,15.535
	c5.972,1.578,11.846,3.486,17.855,4.938c4.619,1.115,7.275,5.913,12.05,7.026c1.385,0.322,2.58,1.823,3.917,1.731
	c12.107-0.831,24.412,3.649,36.028,0.971c10.133-2.338,19.435-2.111,29.027,0.313c19.821,5.007,39.924,8.37,60.34,8.469
	c9.25,0.044,17.494,2.893,25.775,5.825c3.023,1.07,7.299-0.349,9.189,3.634c-5.271,3.295-11.227,3.506-16.766,2.001
	c-11.133-3.026-22.421-2.052-33.661-2.578c-4.702-0.22-5.438,2.813-6.054,6.392c-0.52,3.022-0.917,7.181-4.907,6.779
	c-3.964-0.397-4.522-4.491-4.658-7.946c-0.374-9.497-1.771-11.924-10.735-11.993c-9.111-0.07-17.524-2.628-26.146-4.642
	c-7.067-1.65-13.858-1.17-20.326,2.299c-6.479,3.473-12.393,4.502-19.621,0.338c-6.467-3.724-14.127-0.86-20.971,1.338
	c-3.973,1.275-7.015,1.553-10.604-1.355c-4.484-3.639-10.338-3.787-15.878-3.4c-5.223,0.364-10.243,2.618-15.656,1.758
	c-0.822-0.13-2.383,0.362-2.586,0.932c-2.87,8.031-9.087,4.534-14.401,4.396c-8.267-0.215-16.074,2.834-24.225,3.605
	c-5.96,0.564-11.783,2.448-17.903,1.483c-1.304-0.206-2.935,0.226-4.112,0.895c-7.742,4.398-13.45,2.9-18.183-4.972
	c-1.351-2.247-2.59-5.505-5.751-4.09c-3.214,1.44-1.374,4.688-0.746,7.083c0.667,2.54,1.863,4.94,2.817,7.406
	c0.666,1.722,0.737,3.351-1.09,4.415c-1.72,1.001-3.569,0.607-4.534-0.871c-5.061-7.755-13.502-13.248-15.3-23.221
	c-0.591-3.282-1.681-7.574-5.479-7.66c-4.879-0.11-9.992,1.003-14.403,3.424c-1.799,0.986-0.914,3.507-0.723,5.41
	c0.518,5.135,3.467,9.478,4.643,14.386c0.601,2.507,1.926,5.402-0.857,7.295c-2.717,1.847-5.738,0.892-8.102-0.873
	c-2.275-1.7-4.028-4.085-6.124-6.049c-1.989-1.863-4.306-3.431-7.136-2.187c-3.114,1.372-2.244,4.315-2.366,6.93
	c-0.163,3.519,3.761,8.229,0.635,9.988c-3.653,2.056-6.03-3.547-9.19-5.46c-2.467-1.492-4.719-3.529-7.369-4.485
	c-6.772-2.442-9.938-6.995-11.974-13.964c-1.845-6.314-6.776-11.763-13.994-12.869c-5.971-0.914-9.279-3.827-9.889-9.579
	c-0.59-5.565-4.77-8.065-8.509-11.027c-0.941-0.745-2.093-1.479-3.229-0.538c-1.097,0.909-0.903,2.337-0.241,3.314
	c7.071,10.442,1.295,21.092-2.575,29.507c-3.441,7.481-7.224,14.379-8.678,22.687c-0.779,4.448-4.793,5.07-7.162,0.895
	c-2.583-4.554-6.533-6.834-10.796-9.116c-3.935-2.106-7.134-5.126-8.4-9.503c-3.177-10.976-11.11-18.91-17.104-28.134
	c-6.049-9.308-16.236-14.959-20.81-25.357c-1.181-2.685-3.71-4.866-6.913-4.359c-6.024,0.95-8.067-2.525-9.602-7.338
	c-0.762-2.388-1.552-5.706-4.958-5.271c-3.265,0.419-3.681,3.637-3.694,6.243c-0.031,6.096-3.445,9.225-8.934,8.972
	c-8.68-0.4-17.502,4.536-26.029-0.632c-2.704-2.149-2.531-4.354-0.124-6.601c2.803-2.615,5.254-6.124,8.372-7.783
	c8.646-4.599,10.797-13.613,15.879-20.624c3.859-5.322,7.882-10.404,9.896-16.824c1.085-3.456,3.091-7.056,1.701-10.429
	c-2.457-5.96-2.526-11.519,0.301-17.211C1088.273,109.625,1083.15,106.716,1084.994,100.784z"/>
<path fill-rule="evenodd" clip-rule="evenodd" fill="#343434" d="M1606.549,252.513c-4.848,0.143-9.693-0.17-14.243-1.844
	c-7.1-2.609-14.374-3.291-21.885-3.551c-20.371-0.702-40.424-3.866-60.184-8.897c-9.69-2.466-18.908-1.735-28.956,0.456
	c-11.347,2.473-23.537-2.331-35.519-1.046c-1.158,0.124-2.765-1.075-3.688-2.091c-9.053-9.974-21.753-11.202-33.643-14.971
	c-19.035-6.034-39.127-8.453-57.545-15.945c-11.604-4.722-23.135-9.353-35.244-12.308c-7.915-1.932-15.985-2.839-22.939-7.773
	c-2.975-2.11-5.925,0-8.492,2.006c-1.426,1.113-2.701,3.602-4.752,2.319c-2.021-1.264-1.344-3.878-1.187-6.018
	c0.107-1.468,2.215-3.375-0.333-4.268c-2.394-0.838-3.02,1.563-4.127,3.102c-1.886,2.619-1.063,8.141-4.832,7.938
	c-4.148-0.224-3.647-5.585-4.816-8.805c-2.912-8.021-8.604-10.578-19.881-8.522c-0.471,0.086-1.021,0.127-1.377,0.396
	c-2.949,2.225-9.041-0.339-9.337,2.63c-0.302,3.015,5.795,1.58,8.461,3.617c1.137,0.867,2.648,1.591,3.242,2.761
	c2.288,4.504,5.825,7.161,10.318,9.476c6.736,3.472,7.058,10.765,0.989,15.187c-4.219,3.076-3.287,6.955-2.908,11.05
	c0.254,2.736,1.243,6.407-2.481,7.351c-3.112,0.788-4.174-2.642-5.675-4.699c-2.048-2.806-2.846-6.059-3.023-9.492
	c-0.658-12.678-13.15-18.08-22.147-16.033c-7.344,1.669-9.851-2.259-12.229-6.9c-2.063-4.026-8.287-8.387-0.439-13.143
	c2.068-1.254,0.048-2.735-1.168-2.954c-11.297-2.03-17.816-11.94-27.508-16.524c-12.815-6.061-23.377-14.869-32.495-25.594
	c-1.769-2.079-2.983-4.339-3.665-6.937c0.484-0.512,0.965-0.483,1.441,0.012c13.456,13.087,26.496,26.746,47.444,26.813
	c4.415,0.014,8.649-0.111,12.739-1.617c4.168-1.533,8.315-2.253,12.72-1.287c2.969,0.651,5.53-0.203,8.141-1.893
	c5.249-3.394,7.874-2.232,8.267,3.839c0.223,3.446,2.066,4.83,4.709,5.435c9.066,2.065,17.25,7.096,27.128,6.753
	c6.297-0.219,10.131,6.568,16.466,8.136c5.21,1.288,10.103,4.493,14.685,7.529c6.86,4.547,14.201,7.151,22.363,6.897
	c8.007-0.249,15.208,1.955,21.917,6.068c7.139,4.378,14.917,6.628,23.223,6.971c3.988,0.165,7.56,1.214,10.789,3.528
	c16.116,11.55,34.3,18.175,53.472,22.446c1.171,0.262,2.662,0.237,3.436,0.957c7.844,7.301,11.35,1.948,14.68-4.746
	c1.288-2.589,3.172-5.1,6.193-5.716c7.073-1.443,8.028-6.378,8.049-12.443c0.035-11.29,0.172-11.221,10.878-8.14
	c12.632,3.636,24.4,9.734,37.797,11.404c8.641,1.076,15.166,8.015,22.321,12.845c2.807,1.895,5.489,4.365,8.853,4.655
	c17.266,1.49,30.553,11.954,45.201,19.43c8.313,4.241,16.971,7.295,26.64,8.105c17.245,1.449,34.349,4.389,51.141,8.775
	c1.806,0.471,3.423,1.664,5.128,2.523c-9.137-1.521-18.271-3.046-27.409-4.561C1629.762,253.3,1618.38,250.011,1606.549,252.513z"/>
<path fill-rule="evenodd" clip-rule="evenodd" fill="#575757" d="M1090.616,113.74c1.369,4.94,1.052,10.103,4.674,14.744
	c2.76,3.535-0.719,8.434-2.23,12.165c-1.708,4.216-2.644,7.971-1.082,12.162c1.184,3.175-0.008,4.383-3.104,4.739
	c-5.375,0.617-12.261,7.826-12.083,13.633c0.133,4.325-1.8,6.056-5.235,7.347c-7.452,2.799-12.597,8.3-16.962,14.684
	c-6.305-0.177-12.686,0.918-18.851-1.384c-4.021-1.502-5.318,1.728-6.964,4.259c-4.821-2.377-9.277,0.32-13.865,1.039
	c-2.755,0.434-5.776,1.931-6.579-2.54c1.224-5.594,3.907-10.162,8.665-13.6c7.521-5.435,9.945-15.572,17.788-20.497
	c17.29-10.857,30.66-25.796,44.012-40.799C1082.037,116.053,1086.578,115.517,1090.616,113.74z"/>
<path fill-rule="evenodd" clip-rule="evenodd" fill="#353535" d="M939.088,196.144c-1.558,1.694-4.328,3.49-1.728,5.847
	c2.342,2.118,4.41-0.234,5.996-1.984c3.674-4.051,7.875-7.673,10.542-12.569c0.983-1.805,2.254-3.253,4.521-2.548
	c2.846,0.885,0.976,3.002,1.222,4.674c1.069,7.298-5.07,13.347-3.304,20.659c0.063,0.473,0.207,0.953,0.179,1.425
	c-0.212,3.415,5.595,7.192-1.015,10.281c-6.92,3.235-11.113,2.684-15.681-3.107c-2.847-3.609-6.197-2.991-9.68-1.224
	c-5.134,2.606-9.875,6.022-15.566,7.46c8.459-6.249,14.192-14.216,16.996-24.554C932.18,198.263,933.203,191.602,939.088,196.144z"
	/>
<path fill-rule="evenodd" clip-rule="evenodd" fill="#353535" d="M1008.333,194.588c4.235-0.076,7.925-2.362,12.221-2.731
	c4.164-0.359,6.602,0.618,8.223,4.232c-4.49,3.021-8.096,7.199-14.711,6.515c-3.509-0.362-3.835,5.365-6.845,7.647
	c-3.005,2.278-5.378,5.381-9.178,6.612c-0.451,0.146-1.02,0.305-1.27,0.65c-4.148,5.704-7.668,14.145-15.397,3.212
	c-0.213-0.302-2.609,0.665-3.782,1.379c-2.18,1.327-4.458,2.896-5.858-0.514c-1.26-3.067-0.2-6.014,3.046-7.021
	c3.399-1.052,7.067-1.22,10.599-1.876c1.647-0.305,3.308-0.703,4.86-1.317c2.394-0.95,6.159-1.772,5.457-4.715
	c-0.799-3.347-4.058-0.263-6.203-0.579c-0.936-0.137-1.916,0.04-2.877,0.074c0.598-1.363,1.196-2.726,1.796-4.088
	C996.804,204.237,1001.853,197.507,1008.333,194.588z"/>
<path fill-rule="evenodd" clip-rule="evenodd" fill="#202020" d="M1041.985,198.066c6.337,2.569,13.213,2.123,19.703,3.767
	c4.387,1.11,13.658,12.644,13.917,17.073c0.181,3.101-1.455,3.831-4.041,3.148c-4.233-1.117-7.595-3.43-7.951-8.127
	c-0.421-5.563-3.226-7.402-8.52-6.921c-3.781,0.343-7.629,0.276-11.426,0.049c-3.99-0.238-6.067-2.935-6.107-6.651
	C1037.53,197.628,1040.134,198.279,1041.985,198.066z"/>
<path fill-rule="evenodd" clip-rule="evenodd" fill="#3D3D3D" d="M1144.282,122.497c-0.48-0.005-0.961-0.009-1.441-0.012
	c-2.391-2.901-5.602-4.741-9.107-5.503c-8.139-1.771-12.042-7.249-14.013-14.722c1.686,1.428,3.515,2.94,5.813,1.875
	c9.229-4.271,18.916-4.042,28.689-3.214c6.539,0.758,12.266,3.416,17.408,7.44c-2.273,7.706,6.247,10.743,7.429,17.105
	c0.562,3.023,4.772,5.498,2.242,9.063c-2.441,3.441-6.542,2.266-10.056,2.294c-5.406,0.043-9.581-2.871-13.49-6.131
	C1153.661,127.278,1149.264,124.423,1144.282,122.497z"/>
<path fill-rule="evenodd" clip-rule="evenodd" fill="#2C2C2C" d="M622.097,255.447c-1.772,7.345-6.377,13.945-5.311,22.083
	c0.242,1.852-2.499,2.644-4.478,2.841c-2.345,0.234-3.483-1.202-4.087-3.23c-0.567-1.909-0.77-3.989,0.389-5.577
	c3.81-5.218,5.302-11.136,6.176-17.395c0.334-2.394,1.733-4.874,4.829-4.052C622.146,250.789,622.313,253.172,622.097,255.447z"/>
<path fill-rule="evenodd" clip-rule="evenodd" fill="#858585" d="M188.575,152.146c9.596-2.601,18.056-6.1,25.669-12.802
	c3.324-2.926,7.93-3.581,12.328-2.984c9.813,1.332,18.897-0.664,27.535-5.273c0.833-0.445,2.036-1.181,2.658-0.893
	c9.739,4.492,20.988,0.581,30.529,5.874c-2.813,2.957-6.394,3.264-9.971,3.175c-21.164-0.526-41.438,3.562-61.025,11.451
	c-6.037,2.431-12.37,3.846-18.862,4.316C194.118,155.252,191.012,155.584,188.575,152.146z"/>
<path fill-rule="evenodd" clip-rule="evenodd" fill="#6A6A6A" d="M1015.64,61.764c-0.628,0.336-1.223,0.785-1.891,0.989
	c-3,0.924-6.072,5.321-8.783,2.455c-2.643-2.794,2.745-4.803,3.284-7.561c1.678-8.602,7.971-13.552,13.851-19.088
	c3.71-3.492,3.475-0.79,3.93,1.712C1019.106,45.762,1017.96,54.046,1015.64,61.764z"/>
<path fill-rule="evenodd" clip-rule="evenodd" fill="#2A2A2A" d="M946.323,53.133c-5.566-11.975-4.841-11.418,3.944-22.882
	c6.581-8.588,16.317-14.462,20.737-24.759c4.595-0.765,8.256-0.196,8.385,5.68c0.048,2.17,0.91,3.897,3.438,3.498
	c8.264-1.302,3.027,3.753,1.828,4.794c-4.809,4.178-9.836,7.903-6.229,15.367c-7.186,4.176-0.756,9.201-0.859,13.818
	c-0.079,3.522-6.37,9.753-9.543,9.403c-2.255-0.25-2.357-2.149-2.594-3.749c-0.487-3.292-0.156-6.717-1.653-9.841
	c-4.677,2.667-7.142,7.264-10.105,11.453c-1.506,2.128-3.968,3.194-6.361,2.417C944.575,57.444,945.064,55.186,946.323,53.133z"/>
<path fill-rule="evenodd" clip-rule="evenodd" fill="#353535" d="M946.323,53.133c3.419,3.711,3.975-0.279,5.567-1.964
	c3.246-3.437,5.015-9.65,11.885-6.706c0.274,8.188-3.26,13.673-11.133,16.497c-4.518,1.621-7.413,5.188-9.185,9.62
	c-1.392,3.482-3.46,6.498-7.118,7.67c-3.205,1.025-6.747,1.325-5.934-3.877c0.758-4.847-2.421-4.984-5.656-5.297
	c-0.019-7.343,6.376-0.663,8.285-3.789c4.462,5.529,5.69-0.572,7.456-2.434C943.071,60.132,943.303,55.762,946.323,53.133z"/>
</svg>
